<svg width="93" height="89" viewBox="0 0 93 89" fill="none" xmlns="http://www.w3.org/2000/svg">
<g clip-path="url(#clip0_97_111)">
<path d="M16.7853 56.6631C17.9363 56.3692 18.7932 55.3951 18.936 54.2195C20.5154 41.3805 26.0433 33.4117 32.4197 28.4155C39.4094 22.9407 48.3146 20.7406 57.0097 21.5132C72.6693 22.8987 77.5504 34.1675 78.3905 35.0156C78.8273 35.4522 79.575 35.3011 80.0539 34.9232L92.7395 21.975C93.0924 21.4628 93.084 20.7826 92.7059 20.2872C90.236 16.962 81.4737 0 53.1956 0C42.207 0 28.9837 5.30692 19.7845 15.7528C8.62786 26.9124 6.09914 45.8309 4.2845 53.2707C3.38559 56.9654 2.30185 56.4616 0.125966 59.602C-0.252083 60.1562 0.251982 60.8868 0.898866 60.7188L16.7853 56.6631Z" fill="#1D1E18"/>
<path d="M79.8859 65.8578C79.6255 66.2945 79.2475 66.4792 79.2475 66.4792C78.9366 66.6303 78.609 66.6219 78.3653 66.58L59.6813 62.1044C59.2865 61.9952 58.9588 61.7181 58.7992 61.3402L54.8591 52.4058C54.6491 51.9272 54.1786 51.6081 53.6493 51.5913L37.326 51.1043C36.5279 51.0791 36.3515 49.9707 37.0992 49.702L56.6569 42.5561C57.1442 42.3798 57.6903 42.4889 58.0683 42.85L65.3773 49.8195C65.6713 50.105 66.083 50.2394 66.4946 50.189L79.3735 48.5264C79.6003 48.4928 79.9027 48.4844 80.1884 48.6355C80.6252 48.8706 80.8101 49.3661 80.9025 49.7439C81.7174 52.9264 80.8353 64.254 79.8775 65.8578H79.8859Z" fill="#1D1E18"/>
<path d="M69.1325 88.9999C69.8298 88.8824 70.0062 87.9671 69.4097 87.5892L22.5905 58.334C21.4563 57.6287 20.4734 58.5943 20.2634 59.9126C19.9441 61.8356 19.2973 67.4196 25.7157 70.5517C48.8103 81.8289 69.1325 88.9999 69.1325 88.9999Z" fill="#1D1E18"/>
</g>
<defs>
<clipPath id="clip0_97_111">
<rect width="93" height="89" fill="white"/>
</clipPath>
</defs>
</svg>
