<svg id="svg" version="1.1" width="400" height="96.50793650793652" viewBox="0 0 400 96.50793650793652" xmlns="http://www.w3.org/2000/svg" xmlns:xlink="http://www.w3.org/1999/xlink"><g id="svgg"><path id="path0" d="M17.197 8.868 C 17.145 9.549,17.283 9.491,15.605 9.528 C 14.805 9.545,14.114 9.617,14.070 9.689 C 14.025 9.760,13.866 9.772,13.716 9.714 C 13.508 9.634,13.469 9.678,13.552 9.896 C 13.618 10.068,13.596 10.143,13.498 10.082 C 13.406 10.025,13.333 10.168,13.333 10.407 C 13.333 10.782,13.264 10.833,12.761 10.833 C 12.184 10.833,11.834 11.263,12.083 11.666 C 12.199 11.854,11.830 12.037,11.277 12.065 C 10.985 12.080,10.907 12.202,10.865 12.708 C 10.816 13.295,10.779 13.333,10.258 13.333 C 9.660 13.333,9.500 13.541,9.500 14.317 C 9.500 14.735,9.452 14.769,8.916 14.727 L 8.332 14.681 8.374 36.215 L 8.417 57.750 8.878 57.767 C 9.490 57.789,9.483 57.777,9.519 58.972 C 9.552 60.055,9.639 60.201,10.303 60.272 C 10.809 60.326,10.815 60.333,10.861 60.935 C 10.895 61.381,10.964 61.441,11.485 61.476 C 12.202 61.524,12.222 61.543,12.222 62.174 C 12.222 62.538,12.288 62.656,12.453 62.592 C 12.580 62.544,12.643 62.570,12.593 62.651 C 12.543 62.731,12.963 62.804,13.526 62.812 C 14.697 62.828,14.710 62.836,14.733 63.455 C 14.753 63.995,14.699 63.983,17.583 64.111 C 18.683 64.160,19.595 64.211,19.609 64.225 C 19.623 64.239,19.660 64.438,19.692 64.667 C 19.724 64.896,19.825 65.138,19.917 65.206 C 20.008 65.273,31.691 65.329,45.877 65.331 L 71.672 65.333 71.627 60.292 C 71.593 56.407,71.536 55.245,71.375 55.229 C 71.260 55.218,61.279 55.199,49.195 55.188 L 27.224 55.167 27.237 54.792 C 27.245 54.551,27.165 54.435,27.013 54.468 C 26.813 54.511,26.811 54.477,27.004 54.245 C 27.198 54.011,27.196 53.976,26.991 54.005 C 26.858 54.024,25.723 54.031,24.468 54.020 L 22.187 54.000 22.135 53.375 C 22.088 52.804,22.036 52.745,21.542 52.698 L 21.000 52.646 21.000 36.739 C 21.000 21.709,21.016 20.832,21.292 20.814 C 21.452 20.804,21.696 20.785,21.833 20.772 C 21.995 20.758,22.083 20.574,22.083 20.253 C 22.083 19.884,22.169 19.743,22.417 19.705 C 23.451 19.546,23.500 19.510,23.500 18.913 L 23.500 18.333 47.583 18.333 L 71.667 18.333 71.667 13.332 L 71.667 8.331 44.452 8.334 L 17.237 8.337 17.197 8.868 M89.732 8.529 C 89.654 8.655,89.693 8.673,89.849 8.580 C 89.987 8.499,89.964 8.579,89.792 8.776 C 89.631 8.960,89.500 9.197,89.500 9.305 C 89.500 9.435,89.118 9.500,88.351 9.500 C 87.126 9.500,87.000 9.587,87.000 10.430 C 87.000 10.803,85.734 11.028,84.625 10.853 C 84.556 10.842,84.509 10.890,84.520 10.958 C 84.633 11.678,84.473 11.955,83.835 12.146 C 83.470 12.256,83.179 12.399,83.188 12.464 C 83.261 12.949,83.130 13.333,82.893 13.333 C 82.743 13.333,82.513 13.465,82.381 13.625 C 82.250 13.785,82.197 13.811,82.263 13.683 C 82.335 13.544,82.317 13.490,82.220 13.551 C 82.067 13.645,82.024 13.913,81.946 15.250 C 81.916 15.764,81.441 16.197,81.065 16.053 C 80.778 15.943,80.599 16.634,80.840 16.925 C 80.983 17.097,80.987 17.167,80.852 17.167 C 80.618 17.167,80.587 56.264,80.822 56.410 C 80.904 56.460,81.010 56.408,81.056 56.293 C 81.123 56.126,81.143 56.126,81.154 56.292 C 81.161 56.406,81.309 56.500,81.482 56.500 C 81.878 56.500,82.007 56.824,81.894 57.532 C 81.754 58.412,82.062 59.000,82.663 59.000 C 83.140 59.000,83.167 59.036,83.167 59.667 L 83.167 60.333 83.833 60.333 C 84.484 60.333,84.500 60.347,84.500 60.917 C 84.500 61.472,84.528 61.500,85.083 61.500 C 85.520 61.500,85.671 61.573,85.686 61.792 C 85.696 61.952,85.723 62.158,85.744 62.250 C 85.765 62.342,85.794 62.510,85.808 62.625 C 85.826 62.771,86.206 62.833,87.073 62.833 L 88.313 62.833 88.365 63.458 L 88.417 64.083 90.247 64.136 C 92.359 64.198,92.145 64.125,92.197 64.798 L 92.237 65.329 117.500 65.332 L 142.762 65.335 142.803 64.801 C 142.856 64.109,142.634 64.171,145.141 64.146 C 146.350 64.135,147.381 64.058,147.431 63.976 C 147.482 63.895,147.577 63.861,147.643 63.902 C 147.709 63.943,147.779 63.778,147.799 63.537 C 147.851 62.906,147.961 62.850,149.210 62.816 C 150.144 62.790,150.302 62.746,150.143 62.555 C 149.991 62.372,150.010 62.348,150.236 62.434 C 150.468 62.523,150.510 62.456,150.468 62.064 C 150.422 61.631,150.472 61.577,151.000 61.501 C 151.513 61.427,151.590 61.352,151.635 60.884 C 151.682 60.402,151.744 60.347,152.302 60.301 C 152.883 60.253,152.921 60.213,153.002 59.583 C 153.059 59.144,153.164 58.933,153.311 58.964 C 153.734 59.054,154.125 58.823,154.176 58.454 C 154.366 57.068,154.209 14.675,154.014 14.696 C 153.180 14.786,153.000 14.662,153.000 14.000 C 153.000 13.335,152.998 13.333,152.343 13.333 C 151.705 13.333,151.685 13.316,151.635 12.711 C 151.589 12.159,151.529 12.085,151.106 12.053 C 150.514 12.008,150.519 12.014,150.470 11.366 C 150.432 10.868,150.388 10.833,149.798 10.833 C 149.157 10.833,149.047 10.666,149.158 9.858 C 149.175 9.734,149.109 9.683,149.011 9.743 C 148.913 9.804,148.833 9.771,148.833 9.670 C 148.833 9.570,148.665 9.502,148.458 9.520 C 148.252 9.537,147.465 9.540,146.708 9.526 L 145.333 9.500 145.333 8.915 L 145.333 8.331 117.591 8.335 C 97.048 8.338,89.819 8.388,89.732 8.529 M164.500 36.832 L 164.500 65.333 170.833 65.333 L 177.167 65.333 177.167 53.333 L 177.167 41.333 190.500 41.333 L 203.833 41.333 203.857 41.958 C 203.880 42.569,203.914 43.020,203.971 43.476 C 203.987 43.601,204.103 43.663,204.230 43.614 C 204.356 43.566,204.547 43.613,204.653 43.720 C 204.801 43.867,204.885 43.854,205.004 43.665 C 205.140 43.450,205.274 45.011,205.184 45.769 C 205.149 46.070,205.637 46.380,205.999 46.285 C 206.350 46.194,206.412 46.429,206.337 47.555 C 206.320 47.814,206.443 48.183,206.611 48.375 C 206.779 48.567,206.811 48.662,206.683 48.586 C 206.523 48.492,206.487 48.511,206.570 48.645 C 206.637 48.753,206.892 48.821,207.138 48.796 C 207.543 48.754,207.591 48.811,207.667 49.417 C 207.741 50.011,207.805 50.090,208.250 50.141 C 208.879 50.214,208.816 50.090,208.851 51.341 C 208.883 52.492,208.992 52.660,209.708 52.664 C 210.139 52.667,210.375 53.844,210.186 55.042 C 210.176 55.110,210.467 55.167,210.833 55.167 L 211.500 55.167 211.500 56.313 C 211.500 57.553,211.722 57.945,212.332 57.785 C 212.636 57.706,212.668 57.783,212.686 58.641 C 212.696 59.159,212.723 59.658,212.744 59.750 C 212.765 59.842,212.794 60.014,212.808 60.132 C 212.822 60.251,212.927 60.336,213.042 60.321 C 213.907 60.209,214.000 60.299,214.000 61.250 C 214.000 61.871,214.067 62.167,214.208 62.169 C 214.359 62.171,214.353 62.212,214.187 62.317 C 213.931 62.479,214.082 62.856,214.388 62.818 C 215.074 62.733,215.251 62.844,215.276 63.375 C 215.290 63.673,215.323 64.230,215.349 64.613 L 215.396 65.309 222.289 65.327 L 229.182 65.344 229.152 63.008 C 229.120 60.505,229.023 60.208,228.294 60.391 C 227.945 60.478,227.915 60.427,227.889 59.701 C 227.830 58.036,227.787 57.917,227.245 57.917 C 226.782 57.917,226.747 57.871,226.699 57.208 C 226.648 56.503,226.644 56.500,225.990 56.500 L 225.333 56.500 225.333 55.250 L 225.333 54.000 224.750 54.000 L 224.167 54.000 224.146 53.000 C 224.134 52.450,224.116 51.906,224.104 51.792 C 224.093 51.676,223.804 51.560,223.458 51.532 L 222.833 51.480 222.833 50.251 C 222.833 48.964,222.635 48.664,221.954 48.926 C 221.696 49.024,221.665 48.893,221.449 46.763 C 221.427 46.544,221.260 46.422,220.920 46.377 C 220.298 46.295,220.367 46.440,220.304 45.082 L 220.250 43.917 219.667 43.906 C 219.023 43.895,219.036 43.921,218.964 42.417 C 218.933 41.768,218.844 41.409,218.708 41.396 C 218.594 41.384,218.358 41.366,218.185 41.354 C 217.953 41.339,217.851 41.176,217.801 40.740 C 217.713 39.990,217.633 40.023,219.627 39.988 C 221.421 39.957,221.500 39.919,221.500 39.070 C 221.500 38.676,221.534 38.666,222.958 38.642 C 223.760 38.628,224.529 38.610,224.667 38.600 C 225.104 38.571,225.350 38.315,225.249 37.996 C 225.143 37.664,225.704 37.234,226.002 37.418 C 226.177 37.526,226.777 37.252,226.708 37.095 C 226.494 36.605,226.701 36.167,227.146 36.167 C 227.721 36.167,228.067 35.806,227.924 35.355 C 227.801 34.969,227.945 34.856,228.619 34.804 L 229.118 34.766 229.152 33.595 C 229.192 32.238,229.152 32.316,229.810 32.297 C 230.092 32.289,230.283 32.219,230.234 32.141 C 230.186 32.064,230.223 32.000,230.317 32.000 C 230.430 32.000,230.488 29.434,230.491 24.346 L 230.496 16.693 230.004 16.279 C 229.734 16.051,229.440 15.839,229.351 15.808 C 229.262 15.776,229.165 15.225,229.136 14.583 C 229.090 13.555,229.044 13.414,228.750 13.393 C 228.567 13.380,228.326 13.361,228.216 13.351 C 228.105 13.341,227.967 13.078,227.909 12.766 C 227.818 12.282,227.718 12.182,227.234 12.091 C 226.818 12.013,226.667 11.898,226.667 11.659 C 226.667 11.480,226.573 11.332,226.458 11.331 C 226.317 11.329,226.329 11.278,226.495 11.173 C 226.770 10.999,226.426 10.780,225.975 10.842 C 224.699 11.017,224.187 10.841,224.135 10.208 L 224.083 9.583 222.833 9.527 C 221.374 9.462,221.520 9.532,221.470 8.868 L 221.429 8.337 192.965 8.334 L 164.500 8.331 164.500 36.832 M249.732 8.528 C 249.654 8.655,249.693 8.673,249.849 8.580 C 249.987 8.499,249.964 8.579,249.792 8.776 C 249.631 8.960,249.500 9.197,249.500 9.305 C 249.500 9.429,249.152 9.507,248.542 9.519 C 247.040 9.549,247.088 9.527,247.032 10.208 L 246.980 10.833 245.990 10.854 C 244.432 10.887,244.577 10.809,244.521 11.640 C 244.507 11.846,244.281 12.013,243.835 12.146 C 243.470 12.256,243.179 12.399,243.188 12.464 C 243.261 12.949,243.130 13.333,242.893 13.333 C 242.743 13.333,242.513 13.465,242.381 13.625 C 242.250 13.785,242.197 13.811,242.263 13.683 C 242.340 13.534,242.318 13.490,242.203 13.561 C 242.103 13.623,242.020 13.803,242.019 13.962 C 241.995 16.738,241.893 17.144,241.201 17.197 L 240.670 17.237 240.678 24.041 L 240.685 30.845 241.172 30.943 C 241.762 31.061,242.074 31.400,241.932 31.769 C 241.811 32.086,241.990 33.659,242.146 33.640 C 242.887 33.549,243.148 33.690,243.198 34.208 C 243.245 34.701,243.305 34.755,243.866 34.801 C 244.444 34.849,244.484 34.890,244.532 35.468 C 244.579 36.028,244.632 36.088,245.125 36.136 C 245.631 36.184,245.773 36.378,245.681 36.893 C 245.642 37.105,246.017 37.508,246.231 37.482 C 247.602 37.321,248.313 37.507,248.364 38.042 L 248.417 38.583 250.157 38.631 C 252.039 38.683,252.327 38.791,252.211 39.398 C 252.127 39.836,252.464 40.162,252.664 39.837 C 252.755 39.690,252.825 39.684,252.906 39.816 C 252.988 39.949,259.048 40.000,274.760 40.000 L 296.500 40.000 296.520 40.458 C 296.531 40.710,296.531 40.973,296.520 41.042 C 296.498 41.180,296.673 41.206,297.966 41.258 C 299.180 41.306,299.045 40.523,299.020 47.352 L 299.000 52.787 298.583 52.707 C 298.330 52.659,298.167 52.705,298.167 52.824 C 298.167 52.932,298.082 52.968,297.979 52.904 C 297.849 52.823,297.813 52.973,297.862 53.394 L 297.933 54.000 295.925 54.026 C 294.820 54.040,293.748 54.037,293.542 54.020 C 293.335 54.002,293.167 54.070,293.167 54.170 C 293.167 54.271,293.079 54.299,292.972 54.232 C 292.846 54.155,292.810 54.198,292.870 54.355 C 293.197 55.207,294.584 55.160,267.899 55.207 L 243.250 55.250 243.250 60.250 L 243.250 65.250 272.333 65.250 L 301.417 65.250 301.434 64.789 C 301.456 64.168,301.381 64.196,303.168 64.161 C 305.273 64.120,305.333 64.099,305.333 63.405 L 305.333 62.833 306.458 62.814 C 307.077 62.803,307.645 62.804,307.719 62.817 C 307.794 62.830,307.843 62.708,307.827 62.545 C 307.764 61.901,308.023 61.520,308.559 61.468 C 309.014 61.423,309.090 61.346,309.135 60.884 C 309.182 60.402,309.244 60.347,309.802 60.301 C 310.381 60.253,310.420 60.214,310.468 59.625 C 310.508 59.144,310.595 58.995,310.843 58.979 C 311.021 58.968,311.260 58.949,311.375 58.938 C 311.524 58.923,311.597 58.401,311.631 57.089 C 311.679 55.257,311.800 54.899,312.313 55.088 C 312.970 55.330,312.991 55.088,312.988 47.478 C 312.986 42.877,312.925 40.193,312.826 40.255 C 312.738 40.309,312.667 40.270,312.667 40.169 C 312.667 40.068,312.573 39.998,312.458 40.012 C 311.691 40.112,311.680 40.087,311.630 38.125 C 311.597 36.775,311.525 36.244,311.375 36.229 C 311.260 36.218,311.017 36.199,310.833 36.188 C 310.548 36.170,310.500 36.049,310.500 35.343 C 310.500 34.890,310.428 34.475,310.341 34.421 C 310.253 34.367,310.223 34.213,310.275 34.078 C 310.327 33.943,310.342 33.827,310.309 33.819 C 310.277 33.812,309.765 33.771,309.172 33.729 C 308.117 33.654,307.760 33.459,307.913 33.042 C 308.055 32.654,307.827 32.404,307.296 32.363 C 306.650 32.314,306.621 32.288,306.600 31.711 L 306.583 31.250 304.751 31.196 C 303.744 31.166,302.906 31.128,302.890 31.112 C 302.874 31.096,302.831 30.821,302.795 30.500 C 302.712 29.779,305.678 29.866,280.500 29.848 L 259.667 29.833 259.667 29.278 C 259.667 28.644,259.737 28.668,257.667 28.590 C 256.887 28.560,256.117 28.528,255.955 28.518 C 255.732 28.504,255.684 28.405,255.758 28.113 C 255.878 27.632,255.483 27.263,255.008 27.414 C 254.686 27.516,254.485 23.849,254.618 20.280 C 254.640 19.677,254.583 19.710,255.750 19.642 C 256.300 19.610,256.844 19.496,256.958 19.387 C 257.215 19.145,257.236 18.771,256.983 18.927 C 256.855 19.007,256.856 18.935,256.989 18.687 L 257.178 18.333 283.173 18.333 L 309.167 18.333 309.167 13.332 L 309.167 8.331 279.508 8.335 C 257.517 8.338,249.819 8.388,249.732 8.528 M139.020 18.542 C 139.031 18.656,139.028 18.814,139.014 18.892 C 138.972 19.125,139.178 19.661,139.302 19.644 C 139.365 19.635,139.923 19.636,140.542 19.647 L 141.667 19.667 141.667 36.167 C 141.667 51.763,141.651 52.668,141.375 52.686 C 141.215 52.696,141.008 52.723,140.917 52.744 C 140.825 52.765,140.656 52.794,140.542 52.808 C 140.427 52.822,140.342 52.890,140.353 52.958 C 140.364 53.027,140.364 53.290,140.353 53.542 L 140.333 54.000 138.417 54.000 C 137.037 54.000,136.500 54.056,136.500 54.200 C 136.500 54.356,136.456 54.356,136.300 54.200 C 136.060 53.960,135.604 53.931,135.749 54.165 C 135.809 54.263,135.734 54.285,135.563 54.219 C 135.343 54.135,135.300 54.174,135.383 54.388 C 135.696 55.206,136.599 55.167,117.482 55.167 L 99.667 55.167 99.647 54.708 C 99.636 54.456,99.633 54.202,99.641 54.144 C 99.648 54.086,98.815 54.026,97.791 54.011 C 95.730 53.980,95.750 53.986,95.750 53.360 C 95.750 53.079,95.658 52.915,95.500 52.912 C 95.362 52.910,95.156 52.849,95.042 52.777 C 94.927 52.706,94.758 52.693,94.667 52.750 C 94.527 52.836,94.405 52.101,94.480 51.625 C 94.491 51.556,94.444 51.509,94.375 51.520 C 94.306 51.531,94.044 51.531,93.792 51.520 L 93.333 51.500 93.333 36.250 C 93.333 19.702,93.273 20.880,94.116 20.986 C 94.403 21.021,94.704 20.379,94.581 19.994 C 94.487 19.697,94.564 19.664,95.405 19.642 C 96.717 19.606,96.727 19.605,96.958 19.387 C 97.215 19.145,97.236 18.771,96.983 18.927 C 96.855 19.007,96.856 18.935,96.989 18.687 L 97.178 18.333 118.089 18.333 C 134.696 18.333,139.004 18.376,139.020 18.542 M214.062 18.813 C 214.003 19.111,214.046 19.342,214.176 19.422 C 214.320 19.511,214.347 19.479,214.263 19.317 C 214.197 19.189,214.250 19.215,214.382 19.377 C 214.515 19.538,214.764 19.658,214.936 19.642 C 216.198 19.528,216.478 19.642,216.532 20.292 C 216.565 20.700,216.670 20.924,216.833 20.939 C 216.971 20.951,217.252 20.970,217.458 20.981 L 217.833 21.000 217.833 24.167 L 217.833 27.333 217.375 27.336 C 216.908 27.338,216.460 27.535,216.486 27.727 C 216.564 28.314,216.462 28.470,215.934 28.569 C 215.451 28.660,215.353 28.759,215.260 29.254 L 215.152 29.833 196.159 29.833 L 177.167 29.833 177.167 24.083 L 177.167 18.333 195.662 18.333 L 214.158 18.333 214.062 18.813 M241.147 69.310 C 241.136 69.369,241.140 69.486,241.156 69.570 C 241.172 69.654,241.080 69.636,240.951 69.529 C 240.759 69.369,240.715 69.427,240.703 69.851 C 240.684 70.519,240.748 70.485,239.407 70.538 L 238.250 70.585 238.240 71.154 C 238.230 71.724,237.847 72.052,237.392 71.882 C 237.287 71.843,237.144 71.902,237.074 72.014 C 236.989 72.153,237.023 72.179,237.183 72.097 C 237.311 72.030,237.290 72.080,237.134 72.208 C 236.940 72.367,236.836 72.749,236.801 73.428 C 236.751 74.404,236.744 74.417,236.250 74.417 C 235.639 74.417,235.663 74.277,235.575 78.321 C 235.502 81.646,235.544 81.833,236.354 81.833 L 236.833 81.833 236.853 83.125 C 236.863 83.835,236.857 84.554,236.840 84.722 C 236.822 84.890,236.945 85.140,237.112 85.276 C 237.280 85.413,237.311 85.470,237.183 85.403 C 237.022 85.320,236.989 85.347,237.076 85.488 C 237.152 85.611,237.365 85.653,237.605 85.593 C 237.881 85.524,238.038 85.572,238.104 85.745 C 238.158 85.884,238.276 85.952,238.367 85.896 C 238.459 85.839,238.444 85.960,238.335 86.164 C 238.179 86.454,238.181 86.578,238.342 86.726 C 238.502 86.873,238.518 86.860,238.412 86.667 C 238.316 86.490,238.376 86.504,238.616 86.714 C 239.104 87.141,249.256 87.141,249.092 86.713 C 249.014 86.508,249.041 86.493,249.221 86.642 C 249.406 86.796,249.452 86.733,249.464 86.316 C 249.482 85.677,249.511 85.649,250.149 85.631 C 250.573 85.619,250.631 85.574,250.471 85.382 C 250.319 85.199,250.328 85.159,250.513 85.199 C 250.684 85.236,250.756 85.064,250.773 84.583 C 250.786 84.217,250.805 83.748,250.815 83.542 C 250.826 83.313,250.940 83.167,251.107 83.167 C 251.257 83.167,251.487 83.035,251.619 82.875 C 251.765 82.697,251.811 82.680,251.738 82.833 C 251.645 83.026,251.665 83.039,251.824 82.893 C 251.986 82.744,251.987 82.621,251.832 82.331 C 251.687 82.059,251.685 81.992,251.826 82.079 C 251.966 82.165,252.009 81.833,251.986 80.853 C 251.968 80.114,251.889 79.549,251.810 79.598 C 251.731 79.646,251.667 79.617,251.667 79.531 C 251.667 79.351,245.845 79.284,245.810 79.464 C 245.797 79.530,245.768 80.056,245.746 80.633 C 245.697 81.914,245.808 81.811,244.364 81.906 C 243.235 81.980,243.167 81.965,243.167 81.636 C 243.167 81.444,243.035 81.179,242.875 81.048 C 242.715 80.916,242.689 80.863,242.817 80.930 C 242.973 81.011,243.011 80.986,242.930 80.855 C 242.863 80.747,242.608 80.679,242.362 80.704 L 241.917 80.750 241.870 78.792 C 241.825 76.919,241.838 76.833,242.161 76.833 C 242.348 76.833,242.500 76.761,242.500 76.672 C 242.500 76.583,242.626 76.559,242.779 76.617 C 242.993 76.700,243.032 76.657,242.948 76.437 C 242.874 76.246,242.900 76.188,243.026 76.266 C 243.155 76.346,243.188 76.244,243.131 75.941 L 243.046 75.500 244.356 75.500 C 245.739 75.500,245.775 75.526,245.652 76.440 C 245.611 76.749,246.348 76.834,248.946 76.820 C 252.194 76.803,252.000 76.899,252.000 75.320 L 252.000 74.333 251.417 74.333 L 250.833 74.333 250.814 73.292 C 250.803 72.719,250.803 72.192,250.815 72.120 C 250.838 71.983,250.692 71.922,249.958 71.761 C 249.565 71.675,249.500 71.578,249.500 71.080 L 249.500 70.500 248.250 70.500 C 247.118 70.500,246.998 70.469,246.979 70.167 C 246.918 69.191,246.920 69.191,243.915 69.197 C 242.403 69.200,241.158 69.251,241.147 69.310 M380.660 69.393 C 380.526 69.498,380.409 69.677,380.400 69.792 C 380.342 70.512,380.365 70.500,379.083 70.500 C 378.396 70.500,377.842 70.556,377.853 70.625 C 377.978 71.414,377.812 71.833,377.375 71.836 C 376.664 71.840,376.558 72.004,376.514 73.166 C 376.466 74.432,376.529 74.313,375.885 74.362 C 375.249 74.411,375.248 74.411,375.262 79.294 C 375.271 82.734,375.408 83.689,375.800 83.054 C 376.092 82.582,376.488 83.262,376.530 84.306 C 376.552 84.871,376.634 85.333,376.712 85.333 C 376.789 85.333,376.804 85.413,376.743 85.511 C 376.683 85.609,376.734 85.675,376.858 85.658 C 377.684 85.545,377.954 85.665,377.869 86.108 C 377.803 86.454,377.835 86.519,378.018 86.409 C 378.197 86.301,378.193 86.341,378.000 86.583 C 377.854 86.766,377.837 86.845,377.958 86.772 C 378.073 86.703,378.167 86.721,378.167 86.811 C 378.167 87.007,388.201 87.077,388.395 86.883 C 388.466 86.812,388.649 86.753,388.803 86.752 C 388.995 86.751,389.083 86.610,389.083 86.306 C 389.083 85.748,389.248 85.583,389.806 85.583 C 390.082 85.583,390.256 85.489,390.266 85.333 C 390.275 85.196,390.335 84.963,390.400 84.815 C 390.465 84.668,390.495 83.393,390.467 81.982 L 390.417 79.417 388.034 79.384 C 385.315 79.346,385.390 79.303,385.360 80.897 C 385.341 81.910,385.439 81.841,383.979 81.882 L 382.750 81.917 382.800 81.486 C 382.858 80.983,382.461 80.582,382.057 80.737 C 381.517 80.944,381.305 78.894,381.608 76.375 L 381.713 75.500 383.523 75.500 C 385.284 75.500,385.334 75.510,385.353 75.875 C 385.363 76.081,385.382 76.362,385.394 76.500 C 385.413 76.708,385.843 76.758,387.965 76.796 L 390.512 76.842 390.491 74.433 C 390.468 71.854,390.461 71.833,389.580 71.833 C 389.246 71.833,389.179 71.739,389.135 71.208 L 389.083 70.583 387.875 70.534 C 386.631 70.484,386.507 70.389,386.656 69.599 C 386.738 69.161,381.201 68.971,380.660 69.393 M164.509 72.995 C 164.521 74.367,164.580 75.483,164.641 75.475 C 164.701 75.467,165.556 75.469,166.542 75.480 L 168.333 75.500 168.333 80.986 C 168.333 86.357,168.372 87.000,168.694 87.000 C 168.782 87.000,168.802 86.918,168.740 86.817 C 168.658 86.685,168.718 86.683,168.953 86.808 C 169.141 86.909,170.385 86.982,171.890 86.982 C 174.713 86.980,174.498 87.052,174.588 86.083 C 174.605 85.900,174.630 83.444,174.643 80.625 L 174.667 75.500 176.500 75.500 L 178.333 75.500 178.333 73.000 L 178.333 70.500 171.410 70.500 L 164.486 70.500 164.509 72.995 M200.204 70.612 C 199.873 70.745,199.924 86.768,200.255 86.896 C 200.586 87.023,213.397 87.029,213.727 86.902 C 213.962 86.812,214.000 86.466,214.000 84.399 C 214.000 81.798,214.076 82.005,213.083 81.912 C 212.900 81.895,211.306 81.870,209.542 81.857 L 206.333 81.833 206.333 81.250 L 206.333 80.667 209.508 80.667 L 212.683 80.667 212.633 78.083 L 212.583 75.500 213.000 75.480 C 213.229 75.469,213.518 75.474,213.642 75.491 C 213.766 75.508,213.821 75.447,213.764 75.356 C 213.707 75.265,213.727 75.149,213.806 75.100 C 213.977 74.995,214.064 71.194,213.906 70.781 C 213.800 70.506,200.865 70.346,200.204 70.612 M273.667 78.486 C 273.667 82.879,273.712 86.591,273.768 86.736 C 273.854 86.960,274.234 87.000,276.268 87.000 L 278.667 87.000 278.667 83.833 L 278.667 80.667 280.583 80.667 L 282.500 80.667 282.500 83.732 C 282.500 86.374,282.536 86.812,282.764 86.899 C 283.107 87.031,287.060 87.031,287.403 86.899 C 287.638 86.808,287.667 85.926,287.667 78.649 L 287.667 70.500 285.083 70.500 L 282.500 70.500 282.500 73.000 L 282.500 75.500 280.583 75.500 L 278.667 75.500 278.667 73.000 L 278.667 70.500 276.167 70.500 L 273.667 70.500 273.667 78.486 M310.540 78.708 L 310.583 86.917 313.042 86.963 L 315.500 87.009 315.500 84.421 L 315.500 81.833 315.903 81.833 C 316.125 81.833,316.420 81.790,316.559 81.736 C 316.758 81.660,316.824 81.794,316.865 82.351 C 316.914 83.029,316.945 83.066,317.500 83.129 C 318.223 83.210,318.142 83.062,318.203 84.423 C 318.238 85.188,318.326 85.590,318.461 85.604 C 318.574 85.616,318.812 85.634,318.990 85.646 C 319.239 85.662,319.325 85.811,319.365 86.292 L 319.417 86.917 322.500 86.917 L 325.583 86.917 325.623 78.718 L 325.662 70.520 322.539 70.552 C 319.900 70.578,319.413 70.622,319.394 70.833 C 319.382 70.971,319.363 71.819,319.353 72.718 L 319.333 74.353 318.715 74.302 L 318.097 74.250 318.060 73.211 C 318.016 71.955,317.951 71.833,317.323 71.833 C 316.863 71.833,316.833 71.793,316.833 71.167 L 316.833 70.500 313.665 70.500 L 310.497 70.500 310.540 78.708 M347.377 78.722 L 347.417 86.917 350.500 86.917 L 353.583 86.917 353.627 78.702 L 353.670 70.488 350.504 70.507 L 347.337 70.526 347.377 78.722 " stroke="none" fill="#6c6c74" fill-rule="evenodd"></path><path id="path1" d="M367.725 23.605 C 367.459 23.714,367.708 24.579,368.012 24.599 C 368.163 24.610,368.174 24.590,368.042 24.545 C 367.927 24.507,367.833 24.403,367.833 24.314 C 367.833 24.225,367.927 24.174,368.042 24.200 C 368.156 24.226,368.264 24.173,368.281 24.082 C 368.298 23.991,368.204 23.939,368.072 23.966 C 367.728 24.036,367.777 23.706,368.125 23.615 C 368.321 23.564,368.335 23.537,368.167 23.532 C 368.029 23.529,367.830 23.562,367.725 23.605 M368.397 25.795 C 368.437 26.002,368.359 26.284,368.223 26.420 C 368.087 26.555,368.047 26.667,368.134 26.667 C 368.483 26.667,368.675 26.217,368.498 25.813 C 368.329 25.428,368.326 25.427,368.397 25.795 M368.798 26.473 C 368.579 26.733,368.273 26.927,368.117 26.904 C 367.961 26.882,367.833 26.940,367.833 27.035 C 367.833 27.137,367.730 27.121,367.580 26.997 C 367.370 26.823,367.342 26.829,367.421 27.033 C 367.501 27.243,367.091 27.298,364.716 27.394 C 361.612 27.520,359.995 27.796,359.447 28.294 C 359.247 28.475,358.746 28.677,358.333 28.741 C 357.921 28.806,357.283 28.910,356.917 28.971 L 356.250 29.083 356.250 30.000 L 356.250 30.917 356.875 31.071 C 357.487 31.222,357.681 31.681,357.509 32.573 C 357.419 33.044,357.703 33.482,358.167 33.583 C 358.501 33.657,358.667 33.795,358.667 34.000 C 358.667 34.623,358.860 34.833,359.434 34.833 L 360.000 34.833 360.000 36.066 C 360.000 37.381,360.077 37.500,360.930 37.500 C 361.319 37.500,361.333 37.543,361.333 38.677 C 361.333 39.418,361.395 39.815,361.500 39.750 C 361.592 39.693,361.667 39.731,361.667 39.834 C 361.667 39.937,361.835 39.997,362.042 39.969 C 362.391 39.920,362.427 40.001,362.559 41.136 C 362.671 42.097,362.752 42.336,362.942 42.263 C 363.077 42.211,363.139 42.243,363.082 42.335 C 363.025 42.427,363.165 42.500,363.397 42.500 C 363.758 42.500,363.820 42.583,363.865 43.125 C 363.912 43.690,363.967 43.755,364.439 43.801 C 365.021 43.857,365.167 44.219,365.167 45.604 C 365.167 46.326,365.172 46.333,365.750 46.333 C 366.324 46.333,366.537 46.899,366.343 47.906 C 366.244 48.419,366.518 48.783,367.014 48.797 C 367.689 48.816,367.671 48.785,367.688 49.974 C 367.696 50.537,367.769 50.957,367.849 50.907 C 367.930 50.857,367.952 50.932,367.897 51.075 C 367.820 51.274,367.916 51.333,368.316 51.333 C 368.752 51.333,368.833 51.397,368.833 51.736 C 368.833 52.458,369.004 52.667,369.594 52.667 L 370.152 52.667 370.201 53.875 L 370.250 55.083 370.875 55.135 C 371.498 55.187,371.500 55.189,371.516 55.968 C 371.549 57.504,371.568 57.582,371.917 57.607 C 372.100 57.620,372.339 57.639,372.448 57.649 C 372.557 57.659,372.670 57.948,372.698 58.292 C 372.747 58.883,372.784 58.919,373.375 58.968 L 374.000 59.020 374.026 60.052 C 374.041 60.619,374.049 61.177,374.045 61.292 C 374.040 61.421,374.266 61.500,374.644 61.501 L 375.250 61.502 375.266 62.306 C 375.283 63.226,375.757 64.167,376.203 64.167 C 376.468 64.167,376.610 64.634,376.520 65.208 C 376.489 65.403,384.296 65.362,384.417 65.167 C 384.473 65.075,384.684 64.991,384.885 64.980 C 385.169 64.965,385.139 64.932,384.750 64.833 C 384.475 64.763,384.348 64.697,384.468 64.686 C 384.588 64.676,384.640 64.592,384.583 64.500 C 384.527 64.408,384.579 64.332,384.698 64.331 C 384.873 64.329,384.872 64.300,384.691 64.186 C 384.523 64.079,384.594 63.986,384.971 63.819 C 385.249 63.696,385.443 63.542,385.402 63.477 C 385.362 63.411,385.498 63.306,385.706 63.244 C 386.193 63.098,387.713 62.154,387.874 61.897 C 387.942 61.789,388.253 61.723,388.565 61.752 L 389.131 61.805 389.107 60.502 C 389.094 59.786,389.027 59.234,388.958 59.276 C 388.890 59.318,388.833 59.274,388.833 59.177 C 388.833 58.902,388.479 58.968,388.214 59.292 C 388.083 59.452,388.020 59.495,388.074 59.387 C 388.128 59.278,388.089 59.138,387.988 59.076 C 387.875 59.006,387.845 58.741,387.909 58.398 C 387.967 58.087,387.953 57.833,387.877 57.833 C 387.802 57.833,387.655 57.608,387.551 57.333 C 387.439 57.037,387.237 56.829,387.056 56.822 C 386.778 56.811,386.780 56.797,387.083 56.667 C 387.401 56.530,387.399 56.523,387.042 56.512 C 386.696 56.501,386.546 56.103,386.646 55.460 C 386.657 55.392,386.369 55.290,386.006 55.232 L 385.347 55.126 385.299 53.938 L 385.250 52.750 384.708 52.752 C 384.133 52.753,384.076 52.601,384.160 51.302 C 384.206 50.596,383.892 50.167,383.327 50.167 L 382.833 50.167 382.833 49.104 C 382.833 47.941,382.626 47.604,381.968 47.696 C 381.624 47.744,381.578 47.674,381.532 47.042 C 381.483 46.357,381.462 46.333,380.914 46.333 L 380.348 46.333 380.299 45.125 L 380.250 43.917 379.632 43.865 L 379.014 43.814 378.965 42.615 L 378.917 41.417 378.402 41.366 C 377.896 41.317,377.886 41.297,377.736 40.116 C 377.584 38.921,377.581 38.916,377.042 38.864 C 376.518 38.814,376.351 38.444,376.480 37.625 C 376.491 37.556,376.200 37.500,375.833 37.500 L 375.167 37.500 375.147 36.375 C 375.136 35.756,375.136 35.194,375.147 35.125 C 375.158 35.056,374.904 35.000,374.583 35.000 L 374.000 35.000 374.000 34.194 C 374.000 33.751,373.945 33.334,373.877 33.266 C 373.810 33.198,373.753 33.017,373.752 32.863 C 373.751 32.670,373.583 32.567,373.208 32.531 C 372.699 32.482,372.667 32.440,372.667 31.833 C 372.667 31.209,372.646 31.185,372.052 31.135 C 371.474 31.086,371.435 31.048,371.419 30.500 C 371.366 28.780,371.341 28.667,371.014 28.667 C 370.376 28.667,370.167 28.477,370.167 27.899 C 370.167 27.444,370.101 27.333,369.833 27.333 C 369.650 27.333,369.500 27.250,369.500 27.149 C 369.500 27.047,369.403 27.001,369.285 27.047 C 369.150 27.099,369.057 26.978,369.036 26.722 C 369.014 26.453,369.067 26.355,369.194 26.433 C 369.307 26.503,369.340 26.478,369.274 26.372 C 369.213 26.273,369.295 26.157,369.456 26.115 C 369.711 26.049,369.713 26.036,369.473 26.019 C 369.321 26.009,369.017 26.213,368.798 26.473 M344.167 33.437 C 344.029 33.460,343.129 33.601,342.167 33.750 C 340.729 33.973,340.268 34.120,339.583 34.573 C 339.125 34.876,338.500 35.207,338.193 35.309 C 337.887 35.410,337.501 35.666,337.334 35.878 C 337.156 36.104,336.679 36.353,336.175 36.482 C 335.576 36.635,335.210 36.847,334.961 37.184 C 334.752 37.466,334.449 37.667,334.231 37.667 C 334.027 37.667,333.510 37.933,333.083 38.259 C 332.656 38.585,332.058 38.970,331.753 39.115 C 331.448 39.261,331.118 39.557,331.020 39.773 C 330.917 39.999,330.696 40.167,330.502 40.167 C 330.316 40.167,329.921 40.400,329.623 40.684 C 329.326 40.969,328.724 41.384,328.285 41.607 C 327.836 41.835,327.422 42.183,327.339 42.402 C 327.257 42.617,326.960 42.873,326.678 42.971 C 326.379 43.075,326.097 43.328,326.003 43.575 C 325.864 43.940,325.740 44.000,325.121 44.000 L 324.400 44.000 324.467 44.573 L 324.534 45.146 323.435 45.146 C 322.214 45.146,321.966 45.232,322.022 45.640 C 322.162 46.660,321.805 47.648,321.277 47.699 L 320.750 47.750 320.701 48.958 C 320.656 50.077,320.625 50.167,320.284 50.169 C 319.718 50.173,319.528 50.370,319.482 51.002 C 319.401 52.130,319.480 52.543,319.759 52.436 C 319.907 52.379,319.974 52.407,319.915 52.502 C 319.859 52.593,319.562 52.667,319.254 52.667 C 318.159 52.667,318.149 52.687,318.178 54.687 L 318.205 56.500 318.745 56.500 L 319.285 56.500 319.389 57.613 C 319.499 58.785,319.677 59.049,320.292 58.944 C 320.633 58.885,320.667 58.945,320.667 59.606 L 320.667 60.333 321.343 60.333 C 321.731 60.333,321.978 60.401,321.921 60.493 C 321.867 60.580,321.873 61.143,321.934 61.743 L 322.046 62.833 322.606 62.833 L 323.167 62.833 323.167 63.750 C 323.167 64.254,323.233 64.667,323.315 64.667 C 323.396 64.667,323.453 64.798,323.440 64.958 C 323.410 65.340,371.120 65.508,371.362 65.127 C 371.520 64.877,371.539 63.174,371.393 62.292 C 371.297 61.714,371.248 61.667,370.728 61.667 L 370.167 61.667 370.167 60.500 C 370.167 59.574,370.115 59.333,369.917 59.333 C 369.779 59.333,369.667 59.258,369.667 59.167 C 369.667 59.075,369.479 59.000,369.250 59.000 C 368.873 59.000,368.832 58.932,368.817 58.292 C 368.782 56.765,368.779 56.759,368.216 56.593 C 367.786 56.466,367.673 56.337,367.633 55.926 C 367.591 55.491,367.492 55.394,366.958 55.262 L 366.333 55.108 366.333 54.060 C 366.333 52.560,367.657 52.674,350.165 52.668 C 333.511 52.663,334.268 52.692,334.506 52.067 C 334.595 51.835,334.667 51.312,334.667 50.906 C 334.667 50.172,334.671 50.167,335.250 50.167 C 335.819 50.167,335.833 50.151,335.833 49.500 C 335.833 48.873,335.863 48.833,336.323 48.833 C 336.942 48.833,337.001 48.730,337.109 47.458 C 337.212 46.250,337.189 46.289,337.789 46.267 C 338.244 46.250,338.251 46.233,338.299 45.051 L 338.348 43.853 338.965 43.801 C 339.306 43.773,339.593 43.657,339.604 43.542 C 339.616 43.427,339.634 42.897,339.646 42.363 L 339.667 41.392 340.292 41.238 C 340.826 41.106,340.924 41.009,340.966 40.574 C 341.007 40.163,341.119 40.034,341.550 39.907 C 342.111 39.742,342.114 39.733,342.150 38.238 C 342.166 37.596,342.201 37.550,342.792 37.404 C 343.465 37.238,343.449 37.278,343.484 35.625 C 343.497 34.960,343.551 34.833,343.821 34.833 C 344.316 34.833,344.656 34.395,344.562 33.878 C 344.467 33.355,344.491 33.382,344.167 33.437 " stroke="none" fill="#ee3a37" fill-rule="evenodd"></path><path id="path2" d="M343.611 8.444 C 343.550 8.506,343.500 9.068,343.500 9.694 L 343.500 10.833 342.934 10.833 C 342.337 10.833,342.167 11.040,342.167 11.764 C 342.167 12.073,342.078 12.167,341.783 12.167 C 341.173 12.167,341.000 12.487,341.000 13.617 L 341.000 14.667 340.434 14.667 C 339.756 14.667,339.667 14.844,339.667 16.180 L 339.667 17.167 339.083 17.167 L 338.500 17.167 338.497 18.208 C 338.494 19.444,338.380 19.671,337.735 19.719 C 337.303 19.751,337.244 19.823,337.198 20.378 C 337.155 20.902,337.086 21.000,336.760 21.000 C 336.207 21.000,336.041 21.284,335.908 22.460 C 335.812 23.304,335.734 23.500,335.492 23.500 C 334.764 23.500,334.667 23.659,334.667 24.851 C 334.667 25.993,334.664 26.000,334.208 26.003 C 333.571 26.006,333.298 26.220,333.337 26.686 C 333.458 28.129,333.358 28.458,332.766 28.569 C 332.202 28.675,332.000 28.919,332.000 29.496 C 332.000 29.662,331.887 29.841,331.750 29.894 C 331.612 29.946,331.500 30.104,331.500 30.245 C 331.500 30.385,331.427 30.500,331.339 30.500 C 331.250 30.500,331.218 30.369,331.269 30.208 C 331.347 29.959,331.322 29.964,331.097 30.240 C 330.780 30.629,330.759 30.942,331.042 31.056 C 331.208 31.124,331.208 31.143,331.042 31.154 C 330.919 31.161,330.833 31.398,330.833 31.731 C 330.833 32.246,330.781 32.306,330.245 32.407 C 329.922 32.467,329.701 32.588,329.755 32.675 C 329.809 32.762,329.774 32.833,329.677 32.833 C 329.570 32.833,329.500 33.265,329.500 33.917 L 329.500 35.000 328.917 35.000 C 328.350 35.000,328.333 35.019,328.333 35.646 C 328.333 36.052,328.228 36.378,328.051 36.521 C 327.826 36.704,327.796 36.705,327.903 36.528 C 328.002 36.363,327.935 36.320,327.643 36.361 C 327.427 36.392,327.250 36.504,327.250 36.611 C 327.250 36.718,327.194 36.862,327.125 36.931 C 327.056 36.999,327.000 37.456,327.000 37.944 C 327.000 38.823,326.994 38.833,326.495 38.833 C 325.886 38.833,325.737 39.232,325.676 41.031 C 325.670 41.222,325.497 41.329,325.139 41.364 L 324.611 41.417 324.540 42.583 C 324.458 43.925,324.508 43.786,324.083 43.859 C 323.900 43.891,323.695 43.992,323.628 44.083 C 323.553 44.185,323.504 44.165,323.503 44.032 C 323.497 43.553,323.220 44.023,323.200 44.544 C 323.180 45.083,323.202 45.104,323.859 45.142 L 324.538 45.182 324.469 44.591 L 324.400 44.000 325.121 44.000 C 325.740 44.000,325.864 43.940,326.003 43.575 C 326.097 43.328,326.379 43.075,326.678 42.971 C 326.960 42.873,327.257 42.617,327.339 42.402 C 327.422 42.183,327.836 41.835,328.285 41.607 C 328.724 41.384,329.326 40.969,329.623 40.684 C 329.921 40.400,330.316 40.167,330.502 40.167 C 330.696 40.167,330.917 39.999,331.020 39.773 C 331.118 39.557,331.448 39.261,331.753 39.115 C 332.058 38.970,332.656 38.585,333.083 38.259 C 333.510 37.933,334.027 37.667,334.231 37.667 C 334.449 37.667,334.752 37.466,334.961 37.184 C 335.210 36.847,335.576 36.635,336.175 36.482 C 336.679 36.353,337.156 36.104,337.334 35.878 C 337.501 35.666,337.887 35.410,338.193 35.309 C 338.500 35.207,339.125 34.876,339.583 34.573 C 340.269 34.119,340.727 33.973,342.167 33.752 C 343.129 33.604,344.044 33.457,344.200 33.426 C 344.358 33.394,344.511 33.490,344.547 33.643 C 344.582 33.793,344.670 33.560,344.741 33.125 C 344.866 32.362,344.892 32.333,345.436 32.333 C 345.983 32.333,346.000 32.313,346.000 31.667 C 346.000 31.076,346.045 31.000,346.396 31.000 C 346.878 31.000,347.132 30.710,347.088 30.208 C 347.070 30.002,347.121 29.833,347.202 29.833 C 347.282 29.833,347.336 29.740,347.321 29.625 C 347.228 28.913,347.351 28.500,347.653 28.500 C 348.404 28.500,348.500 28.348,348.500 27.159 L 348.500 26.020 349.125 25.968 C 349.716 25.919,349.753 25.883,349.802 25.292 C 349.830 24.948,349.928 24.667,350.020 24.667 C 350.111 24.667,350.130 24.573,350.061 24.458 C 349.976 24.317,350.026 24.323,350.218 24.479 C 350.673 24.848,350.962 24.442,351.089 23.256 C 351.201 22.205,351.205 22.199,351.768 22.133 L 352.333 22.067 352.353 22.825 C 352.382 23.942,352.555 24.580,352.835 24.606 C 352.972 24.618,353.215 24.637,353.375 24.647 C 353.611 24.663,353.667 24.824,353.667 25.489 C 353.667 26.721,353.887 27.167,354.496 27.167 C 354.982 27.167,355.150 27.553,355.020 28.375 C 355.009 28.444,355.056 28.491,355.125 28.480 C 355.709 28.388,356.167 28.531,356.167 28.807 C 356.167 29.082,356.249 29.099,356.958 28.973 C 357.394 28.895,358.050 28.785,358.417 28.728 C 358.783 28.671,359.247 28.475,359.447 28.294 C 359.995 27.796,361.612 27.520,364.716 27.394 C 367.091 27.298,367.501 27.243,367.421 27.033 C 367.342 26.829,367.370 26.823,367.580 26.997 C 367.730 27.121,367.833 27.137,367.833 27.035 C 367.833 26.940,367.960 26.881,368.115 26.904 C 368.270 26.927,368.558 26.758,368.755 26.529 C 369.029 26.209,369.145 26.163,369.249 26.332 C 369.339 26.477,369.320 26.512,369.194 26.433 C 369.067 26.355,369.014 26.453,369.036 26.722 C 369.057 26.978,369.150 27.099,369.285 27.047 C 369.403 27.001,369.500 27.047,369.500 27.149 C 369.500 27.250,369.650 27.333,369.833 27.333 C 370.059 27.333,370.167 27.222,370.167 26.990 C 370.167 26.800,370.091 26.694,369.997 26.752 C 369.904 26.809,369.871 26.926,369.924 27.012 C 369.977 27.097,369.950 27.167,369.864 27.167 C 369.778 27.167,369.708 26.981,369.708 26.753 C 369.708 26.526,369.774 26.380,369.854 26.430 C 369.934 26.479,370.000 26.437,370.000 26.336 C 370.000 26.235,369.906 26.164,369.792 26.179 C 369.185 26.258,368.582 25.795,368.743 25.374 C 368.796 25.237,368.744 25.007,368.628 24.864 C 368.493 24.696,368.486 24.644,368.610 24.719 C 368.821 24.845,368.812 24.204,368.599 23.859 C 368.450 23.618,368.055 23.609,367.910 23.844 C 367.845 23.950,367.918 24.001,368.091 23.969 C 368.251 23.940,368.417 24.018,368.461 24.142 C 368.518 24.306,368.442 24.338,368.186 24.256 C 367.988 24.193,367.833 24.217,367.833 24.310 C 367.833 24.401,367.965 24.514,368.125 24.562 C 368.366 24.632,368.360 24.642,368.095 24.615 C 367.724 24.578,367.414 23.732,367.725 23.605 C 367.858 23.550,367.860 23.522,367.731 23.513 C 367.629 23.506,367.580 23.326,367.621 23.110 C 367.713 22.625,367.284 22.167,366.738 22.167 C 366.326 22.167,366.211 21.611,366.329 20.190 C 366.350 19.943,366.294 19.838,366.181 19.908 C 366.081 19.969,366.000 19.936,366.000 19.833 C 366.000 19.720,365.805 19.677,365.500 19.725 L 365.000 19.804 364.981 18.860 C 364.970 18.341,364.975 17.788,364.990 17.631 C 365.021 17.325,364.323 17.050,364.009 17.244 C 363.895 17.315,363.833 17.082,363.833 16.583 C 363.833 16.063,363.774 15.851,363.649 15.928 C 363.526 16.004,363.500 15.928,363.572 15.701 C 363.650 15.456,363.597 15.339,363.382 15.283 C 363.106 15.211,363.107 15.204,363.395 15.186 C 363.865 15.157,363.404 14.667,362.906 14.667 C 362.580 14.667,362.512 14.569,362.468 14.042 C 362.422 13.477,362.367 13.412,361.895 13.366 C 361.363 13.314,361.142 12.665,361.159 11.208 C 361.163 10.849,361.103 10.833,359.706 10.820 C 358.905 10.813,358.344 10.769,358.458 10.723 C 358.597 10.667,358.667 10.252,358.667 9.486 L 358.667 8.333 351.194 8.333 C 347.085 8.333,343.672 8.383,343.611 8.444 M355.000 16.500 C 355.000 16.867,354.942 17.167,354.871 17.167 C 354.799 17.167,354.770 16.867,354.805 16.500 C 354.840 16.133,354.898 15.833,354.934 15.833 C 354.970 15.833,355.000 16.133,355.000 16.500 M368.482 26.438 C 368.378 26.564,368.221 26.667,368.134 26.667 C 368.047 26.667,368.087 26.555,368.223 26.420 C 368.359 26.284,368.437 26.002,368.397 25.795 C 368.326 25.427,368.329 25.428,368.498 25.813 C 368.622 26.096,368.618 26.275,368.482 26.438 M387.296 56.926 C 387.500 57.069,387.675 57.350,387.686 57.551 C 387.700 57.819,387.725 57.841,387.780 57.634 C 387.884 57.239,387.545 56.667,387.207 56.667 C 386.981 56.667,386.999 56.718,387.296 56.926 M387.853 58.615 C 387.842 58.816,387.910 59.027,388.003 59.085 C 388.096 59.143,388.122 59.278,388.062 59.387 C 387.993 59.509,388.039 59.502,388.182 59.368 C 388.348 59.214,388.360 59.119,388.226 59.035 C 388.123 58.970,388.001 58.767,387.955 58.583 C 387.878 58.274,387.871 58.276,387.853 58.615 M388.745 61.008 C 388.586 61.265,388.803 61.430,389.017 61.216 C 389.137 61.096,389.140 61.003,389.026 60.933 C 388.933 60.875,388.806 60.909,388.745 61.008 M387.862 61.918 C 387.709 62.159,386.171 63.105,385.706 63.244 C 385.498 63.306,385.362 63.411,385.402 63.477 C 385.443 63.542,385.249 63.696,384.971 63.819 C 384.594 63.986,384.523 64.079,384.691 64.186 C 384.872 64.300,384.873 64.329,384.698 64.331 C 384.579 64.332,384.527 64.408,384.583 64.500 C 384.640 64.592,384.588 64.676,384.468 64.686 C 384.348 64.697,384.475 64.763,384.750 64.833 C 385.139 64.932,385.169 64.965,384.885 64.980 C 384.684 64.991,384.472 65.077,384.414 65.170 C 384.344 65.285,385.313 65.326,387.363 65.295 L 390.417 65.250 390.457 63.708 C 390.487 62.570,390.443 62.166,390.290 62.164 C 390.154 62.162,390.169 62.106,390.333 62.000 C 390.638 61.803,390.551 61.786,389.112 61.762 C 388.472 61.751,387.925 61.819,387.862 61.918 M382.819 81.886 C 382.894 81.960,383.284 81.996,383.686 81.966 L 384.417 81.911 383.550 81.830 C 383.073 81.786,382.744 81.811,382.819 81.886 " stroke="none" fill="#fbb39a" fill-rule="evenodd"></path><path id="path3" d="" stroke="none" fill="#90704c" fill-rule="evenodd"></path><path id="path4" d="" stroke="none" fill="#905c98" fill-rule="evenodd"></path></g></svg>