<?xml version="1.0" encoding="UTF-8"?>
<svg id="Livello_2" data-name="Livello 2" xmlns="http://www.w3.org/2000/svg" viewBox="0 0 178.82 21.72">
  <g id="Livello_1-2" data-name="Livello 1">
    <g>
      <path d="M154.49,21.43l-13.08-16.65-.39-.49c0,.16-.02.33-.02.36v16.78h-2.19V.06l1.7.02h0c4.27,5.46,9.02,11.39,13.31,16.82.08.11.2.26.34.28V.26s.19-.21.21-.21h2.12v21.37"/>
      <path d="M62.35,3.89c-.63-.34-1.25-.75-1.92-1.03-2.56-1.05-6.15-1.36-8.43.48-2.07,1.67-1.19,4.4.98,5.46,3.29,1.6,10.33,1.4,10.87,6.12.87,7.64-9.36,7.99-14.16,5.11-.34-.21-1.35-.92-1.53-1.21s.43-1.22.64-1.56c.07-.12.16-.27.32-.22,1.07,1.01,2.45,1.88,3.87,2.29,2.37.68,6.84.75,8.32-1.61.92-1.48.51-3.32-.98-4.22-2.76-1.67-8.92-2.12-10.74-4.47-1.3-1.69-1.35-4.76,0-6.44,2.75-3.43,9.19-3.06,12.7-1.05.13.08.62.36.67.43.23.32-.59,1.48-.62,1.92Z"/>
      <path d="M26.03,21.42h-2.19v-8.63h8.43c.08,0,.9-.11,1.09-.14,2.1-.32,4.17-1.47,4.7-3.65.82-3.35-.86-5.91-4.18-6.59-.17-.03-.75-.17-.79-.17h-9.25V.06c2.76.14,5.69-.18,8.42,0,1.77.12,3.93.69,5.41,1.72,3.61,2.5,3.69,8.37.35,11.16-3.11,2.6-7.88,1.77-11.65,1.91-.11-.02-.34.15-.34.21v6.16s0,.03,0,.21Z"/>
      <polygon points="90.03 .33 90.03 19.51 101.95 19.51 101.95 21.56 87.83 21.56 87.83 .33 90.03 .33"/>
      <path d="M109.21,11.84c.06.31.09.71.17,1,1.43,5.38,7.31,8.14,12.44,6.06,2.88-1.17,4.97-3.84,5.4-6.92.07-.1.16-.12.28-.13.28-.04,1.7-.03,1.86.07s.14.22.11.39c-.07.4-.18.83-.28,1.23-1.92,7.15-10.25,10.32-16.64,6.7-2.89-1.64-5.11-4.77-5.46-8.11-.01-.14.07-.27.14-.27h1.99Z"/>
      <path d="M129.35,9.64h-2.19c0-.11.02-.23,0-.33C125.19,0,111.96-.41,109.38,8.92c-.05.17,0,.73-.23.73h-1.99c.15-2.66,1.75-5.29,3.77-6.99,5.12-4.34,13.6-3.09,17.04,2.69.74,1.24,1.4,2.84,1.39,4.29Z"/>
      <path d="M171.35,11.97c1.57,1.53,3.08,3.13,4.66,4.66.39.38.86.72,1.24,1.08.54.51,1.04,1.07,1.57,1.58v2.26h-13.43v-2.19h10.14c.06-.24-.09-.27-.21-.41-.82-.99-1.9-1.78-2.81-2.67-1.44-1.41-2.87-2.85-4.24-4.32h3.08Z"/>
      <path d="M178.82.06v2.26c-.3.29-.59.6-.89.89-1.66,1.66-3.34,3.38-5,5-.52.5-1.09.9-1.58,1.44h-2.99q.27-.27.39-.41c1.9-2.28,4.68-4.29,6.58-6.57.12-.14.26-.18.21-.41h-10.14V.06h13.43Z"/>
      <rect x="73.58" y=".06" width="2.06" height="21.5"/>
      <rect y=".06" width="14.11" height="2.19"/>
      <rect y="9.64" width="14.11" height="2.19"/>
      <path d="M14.11,19.37v2.19H0v-1.99s.19-.21.21-.21h13.91Z"/>
    </g>
  </g>
</svg>