<svg id="svg" version="1.1" width="400" height="400" viewBox="0 0 400 400" xmlns="http://www.w3.org/2000/svg" xmlns:xlink="http://www.w3.org/1999/xlink"><g id="svgg"><path id="path0" d="M20.700 148.216 C 20.535 148.390,20.400 150.483,20.400 152.867 L 20.400 157.200 199.400 157.200 L 378.400 157.200 378.400 152.800 L 378.400 148.400 206.864 148.400 C 112.519 148.400,32.104 148.287,28.164 148.149 C 24.224 148.011,20.865 148.041,20.700 148.216 M25.203 176.237 C 21.602 177.799,20.800 179.487,20.800 185.508 L 20.800 190.255 25.100 194.278 C 27.465 196.491,30.120 198.976,31.000 199.801 C 31.880 200.626,33.680 202.313,35.001 203.550 C 47.420 215.189,50.034 217.818,50.334 218.968 L 50.655 220.200 56.827 220.049 C 65.919 219.827,66.400 219.344,66.400 210.449 C 66.400 204.915,66.389 204.850,65.368 204.046 C 64.800 203.600,62.330 201.382,59.877 199.117 C 57.425 196.853,54.517 194.190,53.414 193.200 C 52.311 192.210,50.417 190.469,49.204 189.331 C 47.992 188.192,46.623 186.932,46.161 186.531 C 40.344 181.465,38.000 179.007,38.000 177.973 C 38.000 175.601,37.993 175.599,32.057 175.616 C 28.093 175.627,26.218 175.797,25.203 176.237 M43.451 175.917 C 43.325 176.121,44.162 177.158,45.311 178.222 C 46.460 179.285,48.481 181.155,49.803 182.378 C 51.125 183.600,54.635 186.866,57.603 189.636 C 64.400 195.977,66.227 197.600,66.571 197.600 C 66.721 197.600,66.789 193.761,66.722 189.069 L 66.600 180.539 65.502 178.881 C 63.565 175.957,63.010 175.817,52.740 175.673 C 47.458 175.599,43.585 175.701,43.451 175.917 M76.662 176.183 C 72.082 177.817,72.000 178.199,72.000 198.000 C 72.000 220.932,71.697 220.400,84.783 220.400 C 90.145 220.400,91.950 220.276,92.057 219.900 C 92.136 219.625,92.146 209.545,92.081 197.500 L 91.962 175.600 85.081 175.618 C 80.307 175.630,77.729 175.803,76.662 176.183 M97.600 184.400 L 97.600 193.200 108.000 193.200 L 118.400 193.200 118.400 186.826 C 118.400 176.107,117.806 175.606,105.100 175.602 L 97.600 175.600 97.600 184.400 M124.178 176.114 C 124.069 176.396,124.120 186.431,124.290 198.414 L 124.600 220.200 134.500 220.307 L 144.400 220.414 144.400 210.840 C 144.400 199.369,144.237 200.000,147.200 200.000 C 150.163 200.000,150.000 199.370,150.000 210.839 L 150.000 220.414 160.300 220.307 L 170.600 220.200 170.703 197.900 L 170.807 175.600 160.410 175.600 L 150.014 175.600 149.907 185.700 L 149.800 195.800 147.437 195.922 C 144.293 196.084,144.413 196.505,144.406 185.300 L 144.400 175.600 134.387 175.600 C 126.603 175.600,124.331 175.714,124.178 176.114 M176.097 197.900 L 176.200 220.200 186.100 220.307 L 196.000 220.414 196.000 198.007 L 196.000 175.600 185.997 175.600 L 175.993 175.600 176.097 197.900 M200.897 197.900 L 201.000 220.200 213.700 220.306 C 227.743 220.422,227.484 220.478,224.738 217.943 C 222.716 216.076,216.120 209.737,210.290 204.057 C 207.920 201.748,206.045 199.665,206.123 199.429 C 206.213 199.156,208.818 198.927,213.301 198.800 C 220.064 198.608,220.378 198.562,221.369 197.630 L 222.400 196.661 222.400 187.910 C 222.400 175.064,222.948 175.600,209.817 175.600 L 200.793 175.600 200.897 197.900 M231.755 176.300 C 227.370 178.790,227.556 177.780,227.688 198.335 L 227.800 215.863 228.909 217.317 C 230.892 219.916,232.024 220.200,240.400 220.200 L 247.800 220.200 247.903 197.900 L 248.007 175.600 240.497 175.600 C 234.081 175.600,232.808 175.702,231.755 176.300 M252.800 198.037 L 252.800 220.475 260.300 220.310 C 268.323 220.134,269.786 219.821,271.400 217.935 C 273.222 215.806,273.200 216.049,273.200 197.677 L 273.200 180.144 271.813 178.524 C 269.481 175.800,268.691 175.600,260.240 175.600 L 252.800 175.600 252.800 198.037 M279.070 175.863 C 278.921 176.012,278.800 182.082,278.800 189.352 C 278.800 203.909,278.720 203.568,281.112 199.200 C 281.774 197.990,283.415 195.140,284.758 192.867 C 286.101 190.594,287.200 188.672,287.200 188.596 C 287.200 187.979,290.210 183.603,290.556 183.718 C 290.869 183.823,291.059 189.229,291.200 202.033 L 291.400 220.200 302.300 220.306 L 313.200 220.413 313.200 202.249 C 313.200 183.573,313.198 183.600,314.587 183.600 C 314.723 183.600,317.310 187.918,319.021 191.000 C 319.631 192.100,321.181 194.772,322.465 196.937 C 323.749 199.103,324.800 201.016,324.800 201.188 C 324.800 201.361,325.072 201.728,325.405 202.005 C 325.944 202.452,325.999 201.039,325.905 189.154 L 325.800 175.800 302.570 175.697 C 289.793 175.640,279.218 175.715,279.070 175.863 M331.697 197.893 L 331.800 220.200 341.800 220.200 L 351.800 220.200 351.907 210.100 L 352.014 200.000 354.407 200.000 C 357.335 200.000,356.928 198.504,357.182 210.200 L 357.400 220.200 367.700 220.307 L 378.000 220.414 378.000 198.007 L 378.000 175.600 367.607 175.600 L 357.214 175.600 357.107 185.700 L 357.000 195.800 354.507 195.919 L 352.014 196.038 351.907 185.919 L 351.800 175.800 341.697 175.693 L 331.593 175.586 331.697 197.893 M20.800 206.656 C 20.800 220.000,21.211 220.373,35.900 220.390 C 44.361 220.400,45.330 220.177,43.225 218.703 C 42.799 218.404,41.127 216.909,39.510 215.380 C 36.618 212.646,26.884 203.574,25.581 202.400 C 25.215 202.070,23.990 200.907,22.858 199.815 L 20.800 197.830 20.800 206.656 M97.600 211.393 L 97.600 220.400 105.315 220.400 C 117.564 220.400,118.200 219.861,118.200 209.472 L 118.200 202.600 107.900 202.493 L 97.600 202.386 97.600 211.393 M20.192 239.700 C 20.069 240.195,20.021 242.850,20.084 245.600 L 20.200 250.600 23.200 250.600 L 26.200 250.600 26.400 248.000 L 26.600 245.400 32.894 245.290 C 40.402 245.158,42.176 245.498,50.284 248.615 C 55.598 250.658,63.010 251.895,61.380 250.467 C 60.651 249.828,52.181 246.835,49.700 246.339 C 47.500 245.900,46.303 245.213,47.700 245.193 C 51.550 245.136,59.027 243.427,59.374 242.525 C 60.440 239.745,54.330 238.817,34.908 238.807 L 20.415 238.800 20.192 239.700 M97.908 242.722 C 94.668 244.855,90.753 247.402,89.208 248.383 C 85.768 250.566,85.738 250.801,88.900 250.796 C 91.210 250.792,91.595 250.655,93.971 248.996 L 96.542 247.200 107.501 247.200 L 118.460 247.200 121.242 249.000 C 123.896 250.717,124.159 250.799,126.912 250.786 L 129.800 250.771 128.600 249.788 C 127.940 249.247,127.275 248.803,127.123 248.802 C 126.970 248.801,123.232 246.550,118.816 243.800 L 110.786 238.800 107.293 238.822 L 103.800 238.843 97.908 242.722 M166.000 239.433 C 156.413 240.914,152.520 243.774,155.900 246.852 C 161.268 251.741,185.684 252.756,195.715 248.507 C 196.770 248.060,197.073 247.766,196.715 247.539 C 195.768 246.938,192.250 247.173,191.000 247.920 C 185.406 251.262,166.297 250.798,162.296 247.223 C 160.124 245.283,160.784 242.858,163.882 241.388 C 168.985 238.966,184.853 238.861,189.728 241.216 C 191.473 242.059,196.000 242.329,196.000 241.590 C 196.000 239.373,175.796 237.920,166.000 239.433 M227.775 239.320 C 227.665 239.606,227.626 242.261,227.688 245.220 L 227.800 250.600 230.700 250.718 L 233.600 250.835 233.600 244.818 L 233.600 238.800 230.787 238.800 C 228.848 238.800,227.913 238.962,227.775 239.320 M265.600 244.800 L 265.600 250.800 268.400 250.800 L 271.200 250.800 271.200 246.000 C 271.200 240.488,271.022 240.673,274.896 242.165 C 279.094 243.782,293.249 249.075,295.806 249.984 C 297.632 250.633,298.935 250.810,301.206 250.719 L 304.200 250.600 304.311 244.700 L 304.421 238.800 301.611 238.800 L 298.800 238.800 298.800 243.413 C 298.800 247.257,298.694 248.066,298.165 248.269 C 297.579 248.494,291.226 246.306,283.400 243.185 C 274.456 239.618,271.713 238.800,268.696 238.800 L 265.600 238.800 265.600 244.800 M345.600 239.433 C 338.001 240.607,334.000 242.546,334.000 245.055 C 334.000 250.374,359.342 253.015,377.000 249.538 C 379.665 249.013,379.988 248.739,379.988 247.000 C 379.988 244.740,380.172 244.777,369.472 244.893 C 357.671 245.021,355.549 245.741,366.476 245.909 C 374.004 246.025,374.520 246.181,373.779 248.111 C 373.073 249.951,352.299 250.658,346.128 249.053 C 338.544 247.079,338.024 243.299,345.000 240.850 C 350.560 238.898,367.389 239.120,371.698 241.202 C 373.467 242.056,378.273 242.365,377.796 241.594 C 376.325 239.214,355.895 237.843,345.600 239.433 M49.189 240.013 C 53.931 240.628,54.929 242.387,51.268 243.676 C 50.198 244.053,46.654 244.194,38.200 244.197 L 26.600 244.200 26.475 242.454 C 26.258 239.436,25.684 239.599,36.487 239.612 C 41.829 239.619,47.545 239.799,49.189 240.013 M108.474 240.500 C 108.766 240.775,110.490 241.987,112.305 243.194 C 116.695 246.113,116.607 246.180,108.167 246.314 C 97.821 246.478,97.715 246.421,102.432 243.211 C 104.202 242.007,105.840 240.792,106.074 240.511 C 106.614 239.860,107.788 239.854,108.474 240.500 " stroke="none" fill="#fccc05" fill-rule="evenodd"></path><path id="path1" d="M0.000 200.000 L 0.000 400.000 200.000 400.000 L 400.000 400.000 400.000 200.000 L 400.000 0.000 200.000 0.000 L 0.000 0.000 0.000 200.000 M378.567 147.843 C 379.620 148.247,379.493 157.415,378.426 157.986 C 377.231 158.626,20.720 158.560,20.080 157.920 C 19.566 157.406,19.374 148.360,19.867 147.867 C 20.200 147.534,377.699 147.510,378.567 147.843 M171.503 197.900 L 171.607 220.800 160.403 220.800 L 149.200 220.800 149.200 210.800 L 149.200 200.800 147.400 200.800 L 145.600 200.800 145.600 210.167 C 145.600 215.319,145.491 219.819,145.357 220.167 C 145.144 220.722,143.802 220.800,134.409 220.800 L 123.704 220.800 123.407 198.365 C 123.225 184.637,123.254 175.786,123.481 175.559 C 123.698 175.342,128.360 175.231,134.627 175.293 L 145.400 175.400 145.507 185.300 L 145.614 195.200 147.407 195.200 L 149.200 195.200 149.200 185.267 C 149.200 179.803,149.323 175.211,149.473 175.060 C 149.623 174.910,154.618 174.835,160.573 174.894 L 171.400 175.000 171.503 197.900 M218.931 175.062 C 222.661 175.678,223.586 178.215,223.594 187.851 C 223.603 199.300,223.342 199.595,213.200 199.601 L 206.600 199.605 208.800 201.632 C 210.010 202.747,212.898 205.491,215.217 207.730 C 217.536 209.968,221.361 213.660,223.717 215.932 C 226.073 218.205,228.000 220.232,228.000 220.437 C 228.000 220.663,222.501 220.769,214.100 220.705 L 200.200 220.600 200.097 198.026 C 200.015 180.231,200.100 175.384,200.497 175.132 C 201.092 174.754,216.710 174.695,218.931 175.062 M248.703 197.900 L 248.807 220.800 240.583 220.800 C 226.479 220.800,226.804 221.343,226.804 197.800 C 226.804 174.449,226.618 174.749,241.000 174.913 L 248.600 175.000 248.703 197.900 M269.958 175.800 C 270.704 176.240,271.874 177.292,272.558 178.137 L 273.800 179.675 273.800 198.104 C 273.800 212.492,273.690 216.570,273.300 216.700 C 273.025 216.792,272.800 217.090,272.800 217.364 C 272.800 218.011,271.336 219.337,269.720 220.153 C 268.665 220.686,266.996 220.800,260.220 220.800 L 252.000 220.800 252.000 198.067 C 252.000 185.563,252.133 175.201,252.295 175.038 C 253.033 174.300,268.548 174.970,269.958 175.800 M378.703 197.900 L 378.807 220.800 367.603 220.800 L 356.400 220.800 356.400 210.800 L 356.400 200.800 354.607 200.800 L 352.814 200.800 352.707 210.700 L 352.600 220.600 341.800 220.600 L 331.000 220.600 330.897 197.900 L 330.793 175.200 341.797 175.200 L 352.800 175.200 352.800 185.200 L 352.800 195.200 354.600 195.200 L 356.400 195.200 356.400 185.267 C 356.400 179.803,356.523 175.211,356.673 175.060 C 356.823 174.910,361.818 174.835,367.773 174.894 L 378.600 175.000 378.703 197.900 M38.750 177.200 C 38.886 178.828,39.136 179.211,41.368 181.200 C 43.308 182.929,48.674 187.814,52.573 191.400 C 52.812 191.620,54.895 193.510,57.201 195.600 C 59.507 197.690,61.862 199.850,62.433 200.400 C 63.004 200.950,64.207 202.063,65.107 202.873 C 67.763 205.265,68.186 207.637,67.187 214.545 C 66.387 220.082,65.134 220.800,56.272 220.800 L 49.705 220.800 49.484 219.439 C 49.271 218.128,47.803 216.520,41.600 210.802 C 40.830 210.092,38.931 208.316,37.379 206.856 C 35.828 205.395,31.958 201.752,28.779 198.760 C 25.601 195.768,22.308 192.720,21.463 191.987 L 19.927 190.653 20.063 185.111 C 20.146 181.761,20.370 179.457,20.629 179.285 C 20.865 179.128,21.172 178.692,21.310 178.316 C 21.449 177.940,22.324 177.081,23.254 176.407 L 24.945 175.182 31.773 175.291 L 38.600 175.400 38.750 177.200 M63.320 175.859 C 67.162 177.838,67.636 179.419,67.508 189.821 C 67.377 200.445,67.740 200.170,61.533 194.352 C 56.233 189.385,55.876 189.053,50.178 183.800 C 43.037 177.215,42.400 176.566,42.400 175.869 C 42.400 174.865,61.372 174.856,63.320 175.859 M92.800 198.000 L 92.800 220.800 84.291 220.800 L 75.782 220.800 74.239 219.528 C 71.200 217.023,71.218 217.147,71.218 198.000 C 71.218 178.667,71.204 178.761,74.429 176.425 L 76.120 175.200 84.460 175.200 L 92.800 175.200 92.800 198.000 M116.004 176.100 C 118.795 177.999,118.985 178.577,119.142 185.634 C 119.220 189.141,119.172 192.458,119.034 193.005 L 118.785 194.000 107.835 194.000 C 98.220 194.000,96.856 193.923,96.643 193.367 C 96.311 192.503,96.333 175.800,96.667 175.467 C 97.495 174.638,114.684 175.201,116.004 176.100 M196.800 198.000 L 196.800 220.800 186.000 220.800 L 175.200 220.800 175.200 198.000 L 175.200 175.200 186.000 175.200 L 196.800 175.200 196.800 198.000 M326.800 189.213 C 326.800 203.851,326.587 205.528,325.050 202.975 C 324.803 202.564,324.126 201.411,323.546 200.413 C 322.966 199.416,321.596 197.061,320.502 195.179 C 319.407 193.298,317.965 190.778,317.297 189.579 C 314.943 185.356,314.597 184.805,314.300 184.803 C 314.135 184.801,314.000 192.881,314.000 202.757 C 314.000 218.763,313.931 220.741,313.367 220.957 C 312.427 221.318,291.481 221.239,290.904 220.873 C 290.524 220.632,290.384 216.369,290.304 202.662 L 290.200 184.766 289.400 186.280 C 288.960 187.113,287.454 189.776,286.054 192.197 C 284.653 194.619,283.053 197.410,282.498 198.400 C 278.205 206.059,278.220 206.091,278.095 189.300 L 277.990 175.200 302.395 175.200 L 326.800 175.200 326.800 189.213 M22.242 198.254 C 23.706 199.587,27.328 202.947,31.217 206.581 C 37.959 212.880,43.722 218.212,43.993 218.400 C 44.518 218.765,45.176 220.291,44.919 220.547 C 44.780 220.686,40.211 220.800,34.764 220.800 L 24.862 220.800 23.166 219.500 C 20.131 217.173,19.819 216.098,19.668 207.434 C 19.484 196.908,19.744 195.981,22.242 198.254 M118.791 202.189 C 119.760 203.357,119.182 216.345,118.093 217.872 C 116.075 220.701,115.511 220.828,105.540 220.708 L 96.600 220.600 96.492 211.650 C 96.417 205.385,96.521 202.536,96.841 202.150 C 97.540 201.309,118.090 201.345,118.791 202.189 M55.800 238.936 C 59.807 240.093,60.788 240.947,60.208 242.774 C 59.894 243.764,54.753 245.531,51.894 245.632 C 51.147 245.658,51.197 245.729,52.200 246.063 C 53.661 246.549,57.362 247.937,59.000 248.612 C 59.660 248.884,60.830 249.337,61.600 249.620 C 65.202 250.942,64.553 251.600,59.645 251.600 C 55.794 251.600,54.501 251.287,49.800 249.215 C 49.360 249.021,48.100 248.559,47.000 248.189 C 45.900 247.818,44.640 247.365,44.200 247.181 C 42.356 246.412,37.453 245.950,32.400 246.071 L 27.000 246.200 26.881 248.915 L 26.763 251.631 23.281 251.515 L 19.800 251.400 19.685 245.600 C 19.622 242.410,19.676 239.371,19.806 238.847 L 20.042 237.893 36.921 238.126 C 49.879 238.305,54.265 238.493,55.800 238.936 M117.600 242.093 C 121.010 244.214,125.510 246.996,127.600 248.275 C 129.690 249.554,131.356 250.780,131.302 251.000 C 131.186 251.476,123.572 251.773,123.233 251.315 C 122.984 250.979,122.537 250.686,119.400 248.806 L 117.400 247.608 107.680 247.604 C 97.029 247.600,97.359 247.538,93.605 250.235 C 90.662 252.349,82.581 252.249,85.350 250.132 C 87.528 248.467,95.642 243.200,96.029 243.200 C 96.196 243.200,96.393 243.060,96.467 242.889 C 96.540 242.718,98.220 241.543,100.200 240.278 L 103.800 237.978 107.600 238.108 L 111.400 238.237 117.600 242.093 M190.600 238.796 C 191.480 239.049,193.171 239.531,194.358 239.867 C 199.032 241.189,198.767 242.800,193.876 242.800 C 191.908 242.800,190.744 242.542,188.950 241.706 C 183.377 239.112,164.529 240.418,162.113 243.565 C 158.185 248.682,182.864 251.798,190.723 247.178 C 192.812 245.949,198.800 246.111,198.800 247.396 C 198.800 248.109,195.007 249.888,192.387 250.405 C 191.184 250.643,189.432 251.009,188.494 251.218 C 187.556 251.428,182.474 251.600,177.200 251.600 C 171.926 251.600,166.844 251.428,165.906 251.218 C 164.968 251.009,163.216 250.643,162.013 250.405 C 153.949 248.815,151.344 243.498,157.333 240.854 C 160.426 239.488,162.090 239.104,168.000 238.389 C 171.739 237.936,188.677 238.241,190.600 238.796 M234.386 238.774 C 234.614 239.199,234.800 241.911,234.800 244.800 C 234.800 251.665,234.840 251.600,230.586 251.600 L 227.200 251.600 227.200 245.067 C 227.200 241.473,227.320 238.413,227.467 238.267 C 228.167 237.567,233.967 237.992,234.386 238.774 M273.800 238.697 C 274.240 238.949,276.670 239.898,279.200 240.807 C 281.730 241.716,284.160 242.608,284.600 242.790 C 285.040 242.971,286.030 243.344,286.800 243.620 C 287.570 243.895,288.740 244.339,289.400 244.607 C 294.054 246.494,297.377 247.583,297.650 247.310 C 297.827 247.133,298.023 245.011,298.086 242.594 L 298.200 238.200 301.400 238.200 L 304.600 238.200 304.710 244.900 L 304.819 251.600 300.890 251.600 C 298.728 251.600,296.789 251.450,296.580 251.266 C 296.371 251.082,295.300 250.618,294.200 250.235 C 293.100 249.852,291.840 249.390,291.400 249.209 C 290.960 249.029,289.970 248.656,289.200 248.380 C 288.430 248.105,287.260 247.659,286.600 247.389 C 285.940 247.120,283.330 246.142,280.800 245.216 C 276.285 243.564,275.737 243.357,273.481 242.450 C 272.866 242.202,272.287 242.000,272.194 242.000 C 272.101 242.000,271.975 244.115,271.913 246.700 L 271.800 251.400 268.662 251.518 C 266.693 251.591,265.315 251.461,264.962 251.169 C 264.199 250.535,264.143 239.224,264.900 238.445 C 265.520 237.806,272.591 238.007,273.800 238.697 M369.000 238.407 C 375.228 239.101,379.379 240.568,379.109 241.981 C 378.877 243.200,373.559 243.034,370.877 241.724 L 368.600 240.612 358.600 240.606 C 348.709 240.600,347.705 240.702,343.884 242.102 C 339.998 243.525,339.960 246.035,343.800 247.541 C 349.115 249.625,372.720 249.599,373.122 247.508 C 373.244 246.878,372.616 246.809,365.928 246.709 L 358.600 246.600 358.473 245.494 L 358.346 244.387 369.273 244.494 L 380.200 244.600 380.304 246.800 C 380.442 249.743,380.263 249.918,376.581 250.414 C 374.831 250.650,372.531 251.014,371.469 251.222 C 368.833 251.738,349.625 251.701,346.624 251.174 C 333.100 248.797,329.560 245.321,336.400 241.134 C 340.556 238.589,357.739 237.152,369.000 238.407 M26.975 240.921 C 26.844 241.262,26.796 241.960,26.868 242.471 L 27.000 243.400 38.640 243.400 C 51.682 243.400,54.249 242.965,51.500 241.222 C 50.082 240.322,27.312 240.043,26.975 240.921 M104.400 242.800 C 102.970 243.868,101.564 244.755,101.276 244.771 C 100.988 244.787,100.864 244.980,101.000 245.200 C 101.263 245.626,113.286 245.780,113.704 245.363 C 113.934 245.133,107.715 240.771,107.239 240.829 C 107.107 240.845,105.830 241.732,104.400 242.800 " stroke="none" fill="#fcfcfc" fill-rule="evenodd"></path><path id="path2" d="M20.000 152.800 L 20.000 157.601 199.300 157.500 L 378.600 157.400 378.600 152.800 L 378.600 148.200 204.600 148.199 L 30.600 148.199 204.500 148.300 L 378.400 148.401 378.400 152.800 L 378.400 157.200 199.376 157.200 L 20.352 157.200 20.476 152.599 C 20.544 150.069,20.465 147.999,20.300 147.999 C 20.135 148.000,20.000 150.160,20.000 152.800 M31.984 175.494 C 35.631 175.582,37.480 175.782,37.714 176.112 C 37.964 176.463,38.015 176.431,37.898 176.000 C 37.763 175.504,36.766 175.397,32.167 175.381 L 26.600 175.363 31.984 175.494 M43.200 175.591 C 42.709 175.902,42.958 176.332,44.576 177.976 C 45.663 179.079,46.621 179.912,46.706 179.827 C 46.791 179.742,46.030 178.907,45.015 177.971 C 42.526 175.677,42.648 175.634,52.011 175.500 L 60.200 175.382 52.000 175.297 C 47.361 175.249,43.540 175.377,43.200 175.591 M85.096 175.494 L 91.993 175.619 92.102 196.309 L 92.211 217.000 92.205 196.200 L 92.200 175.400 85.200 175.385 L 78.200 175.370 85.096 175.494 M97.467 175.467 C 97.320 175.613,97.200 179.756,97.200 184.673 L 97.200 193.613 107.900 193.507 L 118.600 193.400 118.616 186.800 L 118.632 180.200 118.506 186.700 L 118.380 193.200 107.990 193.200 L 97.600 193.200 97.600 184.409 L 97.600 175.617 105.300 175.499 L 113.000 175.382 105.367 175.291 C 101.168 175.241,97.613 175.320,97.467 175.467 M124.266 175.493 C 124.161 175.662,128.649 175.749,134.238 175.687 L 144.400 175.574 144.406 185.287 C 144.413 196.506,144.293 196.084,147.437 195.922 L 149.800 195.800 149.907 185.700 L 150.014 175.600 160.410 175.600 L 170.807 175.600 170.703 197.900 L 170.600 220.200 160.300 220.307 L 150.000 220.414 150.000 210.839 C 150.000 199.370,150.163 200.000,147.200 200.000 C 144.229 200.000,144.383 199.379,144.489 210.933 L 144.579 220.600 144.789 210.600 L 145.000 200.600 147.200 200.600 L 149.400 200.600 149.600 210.600 L 149.800 220.600 159.600 220.713 C 164.990 220.775,169.806 220.726,170.303 220.604 L 171.207 220.383 171.103 197.892 L 171.000 175.400 160.400 175.400 L 149.800 175.400 149.600 185.400 L 149.400 195.400 147.200 195.400 L 145.000 195.400 144.800 185.400 L 144.600 175.400 134.528 175.293 C 128.988 175.234,124.370 175.324,124.266 175.493 M175.873 175.460 C 175.723 175.610,175.600 185.780,175.600 198.059 L 175.600 220.385 176.500 220.605 C 176.995 220.726,181.630 220.775,186.800 220.713 L 196.200 220.600 196.200 198.000 L 196.200 175.400 186.173 175.293 C 180.659 175.235,176.024 175.310,175.873 175.460 M200.667 175.467 C 200.297 175.837,200.329 219.909,200.700 220.138 C 200.865 220.240,200.952 210.264,200.893 197.969 L 200.787 175.615 209.893 175.500 L 219.000 175.384 209.967 175.292 C 204.998 175.241,200.813 175.320,200.667 175.467 M232.537 175.501 C 232.282 175.666,235.658 175.744,240.040 175.677 L 248.007 175.553 247.903 197.877 L 247.800 220.200 242.200 220.417 L 236.600 220.635 242.051 220.717 C 246.244 220.781,247.606 220.674,247.954 220.255 C 248.282 219.861,248.378 213.584,248.303 197.555 L 248.200 175.400 240.600 175.301 C 236.420 175.247,232.791 175.337,232.537 175.501 M252.584 175.700 C 252.478 175.975,252.441 186.100,252.500 198.200 L 252.607 220.200 252.703 197.877 L 252.800 175.553 260.763 175.677 C 265.143 175.745,268.518 175.668,268.263 175.506 C 267.406 174.962,252.797 175.143,252.584 175.700 M331.467 175.467 C 331.097 175.837,331.129 219.909,331.500 220.138 C 331.665 220.240,331.752 210.258,331.693 197.955 L 331.587 175.586 341.693 175.693 L 351.800 175.800 351.907 185.919 L 352.014 196.038 354.507 195.919 L 357.000 195.800 357.107 185.700 L 357.214 175.600 367.607 175.600 L 378.000 175.600 378.000 198.007 L 378.000 220.414 367.700 220.307 L 357.400 220.200 357.182 210.200 C 357.063 204.700,356.928 200.155,356.882 200.100 C 356.672 199.844,352.000 200.036,351.999 200.300 C 351.999 200.465,353.034 200.600,354.299 200.600 L 356.600 200.600 356.707 210.494 C 356.814 220.359,356.817 220.389,357.707 220.607 C 358.198 220.727,363.010 220.775,368.400 220.713 L 378.200 220.600 378.200 198.000 L 378.200 175.400 367.600 175.400 L 357.000 175.400 356.893 185.500 L 356.786 195.600 354.593 195.600 L 352.400 195.600 352.400 185.880 C 352.400 178.853,352.267 176.027,351.920 175.680 C 351.400 175.160,331.976 174.957,331.467 175.467 M24.600 176.065 C 23.518 176.661,21.200 178.872,21.200 179.309 C 21.200 179.503,21.688 179.082,22.283 178.374 C 22.879 177.666,24.094 176.756,24.983 176.352 C 25.873 175.948,26.330 175.619,26.000 175.621 C 25.670 175.623,25.040 175.823,24.600 176.065 M196.000 198.007 L 196.000 220.414 186.100 220.307 L 176.200 220.200 176.097 197.900 L 175.993 175.600 185.997 175.600 L 196.000 175.600 196.000 198.007 M220.095 176.226 C 222.209 177.373,222.400 178.341,222.400 187.910 C 222.400 197.337,222.325 197.668,220.000 198.518 C 219.495 198.702,219.503 198.742,220.045 198.768 C 220.400 198.786,221.165 198.325,221.745 197.745 L 222.800 196.691 222.800 187.926 C 222.800 178.038,222.104 175.511,219.411 175.616 C 219.185 175.625,219.493 175.899,220.095 176.226 M278.667 175.867 C 278.265 176.268,278.358 202.114,278.763 202.754 C 279.040 203.191,279.222 203.106,279.622 202.354 C 280.089 201.479,280.075 201.446,279.455 201.958 C 278.822 202.480,278.786 201.654,278.889 189.058 C 278.950 181.656,278.985 175.600,278.967 175.600 C 278.948 175.600,278.813 175.720,278.667 175.867 M325.911 189.096 C 326.010 201.177,325.959 202.464,325.401 202.001 C 324.879 201.568,324.821 201.590,325.034 202.143 C 325.172 202.505,325.536 202.800,325.843 202.800 C 326.456 202.800,326.710 176.239,326.100 175.862 C 325.935 175.759,325.850 181.715,325.911 189.096 M74.276 177.300 C 73.554 178.015,73.421 178.219,73.981 177.754 C 74.542 177.288,75.360 176.708,75.800 176.466 C 76.240 176.223,76.372 176.019,76.094 176.012 C 75.816 176.005,74.998 176.585,74.276 177.300 M229.800 177.012 C 229.140 177.553,228.780 177.990,229.000 177.984 C 229.220 177.977,229.940 177.529,230.600 176.988 C 231.260 176.447,231.620 176.010,231.400 176.016 C 231.180 176.023,230.460 176.471,229.800 177.012 M270.093 176.841 C 270.695 177.290,271.664 178.229,272.247 178.928 L 273.307 180.200 272.599 179.000 C 271.827 177.693,270.038 176.030,269.400 176.027 C 269.180 176.026,269.492 176.392,270.093 176.841 M65.246 178.531 L 66.600 180.463 66.722 189.072 C 66.804 194.813,66.709 197.635,66.436 197.541 C 66.211 197.463,64.446 195.991,62.514 194.268 L 59.000 191.136 62.577 194.568 C 67.467 199.260,67.202 199.540,67.191 189.700 C 67.182 180.730,66.891 179.235,64.802 177.400 C 64.155 176.831,64.282 177.157,65.246 178.531 M116.400 176.993 C 116.400 177.125,116.782 177.631,117.249 178.117 L 118.099 179.000 117.647 178.122 C 117.200 177.254,116.400 176.529,116.400 176.993 M38.000 178.746 C 38.000 179.022,42.835 183.634,46.161 186.531 C 46.623 186.932,47.992 188.192,49.204 189.331 C 54.028 193.860,59.600 198.860,59.600 198.658 C 59.600 198.540,55.325 194.542,50.100 189.774 C 44.875 185.005,40.015 180.498,39.300 179.757 C 38.585 179.017,38.000 178.562,38.000 178.746 M227.810 179.580 C 227.153 180.850,226.868 214.459,227.506 215.462 C 227.668 215.717,227.750 208.023,227.688 198.366 C 227.591 183.111,227.657 180.649,228.198 179.604 C 228.540 178.942,228.731 178.400,228.621 178.400 C 228.511 178.400,228.146 178.931,227.810 179.580 M52.600 185.337 C 55.680 188.327,58.369 190.779,58.575 190.787 C 58.782 190.794,58.512 190.404,57.975 189.919 C 57.439 189.435,54.750 186.983,52.000 184.470 L 47.000 179.901 52.600 185.337 M20.486 185.437 L 20.400 190.274 25.963 195.537 C 29.023 198.432,31.678 200.800,31.863 200.799 C 32.048 200.799,31.634 200.304,30.942 199.699 C 30.251 199.095,27.691 196.727,25.254 194.439 L 20.824 190.277 20.698 185.439 L 20.573 180.600 20.486 185.437 M273.383 197.800 C 273.383 207.260,273.436 211.073,273.500 206.273 C 273.564 201.473,273.563 193.733,273.499 189.073 C 273.436 184.413,273.383 188.340,273.383 197.800 M288.641 186.038 C 287.833 187.395,287.250 188.583,287.345 188.678 C 287.440 188.773,288.118 187.760,288.851 186.426 C 289.585 185.091,290.323 184.000,290.492 184.000 C 290.662 184.000,290.800 192.078,290.800 201.951 C 290.800 216.678,290.899 219.984,291.349 220.358 C 291.737 220.680,295.052 220.782,302.649 220.707 L 313.400 220.600 313.600 202.433 C 313.727 190.856,313.945 184.219,314.200 184.135 C 314.420 184.062,315.479 185.538,316.553 187.415 C 317.627 189.291,318.581 190.752,318.673 190.660 C 318.765 190.569,317.993 189.078,316.958 187.347 C 313.096 180.889,313.200 180.478,313.200 202.249 L 313.200 220.413 302.300 220.306 L 291.400 220.200 291.200 202.033 C 290.979 181.980,290.996 182.085,288.641 186.038 M283.456 195.061 C 282.209 197.184,281.256 198.989,281.338 199.072 C 281.421 199.154,282.441 197.552,283.606 195.511 C 286.226 190.922,286.079 191.200,285.886 191.200 C 285.797 191.200,284.704 192.937,283.456 195.061 M124.087 206.100 C 124.039 213.965,124.135 220.400,124.300 220.400 C 124.573 220.401,124.566 209.440,124.285 196.800 C 124.224 194.050,124.135 198.235,124.087 206.100 M320.074 193.400 C 321.092 195.420,324.545 201.188,324.665 201.069 C 324.821 200.912,320.663 193.705,320.154 193.252 C 319.999 193.113,319.963 193.180,320.074 193.400 M20.261 202.863 C 19.920 209.209,19.972 213.604,20.400 214.600 C 20.607 215.081,20.755 211.931,20.772 206.700 C 20.804 196.899,20.646 195.714,20.261 202.863 M23.617 200.449 C 25.056 201.852,28.559 205.160,31.402 207.800 C 34.244 210.440,37.900 213.860,39.525 215.400 C 41.151 216.940,42.744 218.350,43.066 218.534 C 43.388 218.718,43.808 219.258,44.000 219.734 C 44.213 220.262,44.359 220.363,44.375 219.994 C 44.396 219.473,30.941 206.653,23.443 200.049 L 21.000 197.898 23.617 200.449 M60.029 199.073 C 60.044 199.253,61.480 200.659,63.218 202.198 L 66.379 204.996 66.502 210.598 L 66.624 216.200 66.712 210.585 L 66.800 204.970 63.400 201.858 C 61.530 200.147,60.013 198.893,60.029 199.073 M206.267 199.067 C 205.860 199.474,205.945 199.890,206.554 200.471 C 206.858 200.762,209.153 202.973,211.654 205.384 C 214.154 207.795,217.832 211.305,219.827 213.184 C 221.822 215.063,219.611 212.820,214.915 208.200 C 210.219 203.580,206.382 199.669,206.388 199.510 C 206.395 199.350,209.325 199.166,212.900 199.099 L 219.400 198.979 212.967 198.889 C 209.428 198.840,206.413 198.920,206.267 199.067 M38.565 207.261 C 41.884 210.485,44.656 213.069,44.723 213.004 C 44.858 212.876,39.373 207.583,35.165 203.781 C 33.715 202.471,35.245 204.037,38.565 207.261 M97.382 202.503 C 97.273 202.787,97.233 206.975,97.292 211.809 L 97.400 220.600 105.100 220.613 L 112.801 220.627 105.200 220.505 L 97.600 220.383 97.600 211.385 L 97.600 202.386 107.900 202.493 L 118.200 202.600 118.200 209.472 C 118.200 217.329,118.024 217.849,114.792 219.500 C 113.823 219.995,113.312 220.400,113.656 220.400 C 114.539 220.400,116.772 218.808,117.763 217.472 C 118.538 216.427,118.600 215.821,118.600 209.272 L 118.600 202.200 108.090 202.093 C 99.798 202.009,97.538 202.096,97.382 202.503 M47.400 215.600 C 48.706 216.920,49.865 218.000,49.975 218.000 C 50.085 218.000,49.106 216.920,47.800 215.600 C 46.494 214.280,45.335 213.200,45.225 213.200 C 45.115 213.200,46.094 214.280,47.400 215.600 M20.800 215.993 C 20.800 216.659,24.141 220.000,24.807 220.000 C 25.088 220.000,24.711 219.591,23.969 219.090 C 23.226 218.590,22.210 217.574,21.710 216.831 C 21.209 216.089,20.800 215.712,20.800 215.993 M272.529 216.300 C 272.393 216.685,271.814 217.540,271.241 218.200 L 270.200 219.400 271.464 218.260 C 272.159 217.633,272.817 216.778,272.926 216.360 C 273.176 215.405,272.860 215.358,272.529 216.300 M66.000 216.853 C 66.000 217.102,65.357 217.912,64.572 218.653 C 63.786 219.394,63.317 220.000,63.530 220.000 C 64.006 220.000,66.400 217.319,66.400 216.786 C 66.400 216.574,66.310 216.400,66.200 216.400 C 66.090 216.400,66.000 216.604,66.000 216.853 M228.314 217.004 C 228.541 217.447,229.148 218.166,229.663 218.602 C 230.567 219.366,230.565 219.352,229.606 218.197 C 228.013 216.279,227.879 216.155,228.314 217.004 M73.130 217.864 C 73.698 218.931,76.222 220.538,76.901 220.265 C 77.199 220.144,77.118 220.050,76.701 220.032 C 76.317 220.014,75.253 219.325,74.337 218.500 C 73.206 217.482,72.819 217.278,73.130 217.864 M225.100 218.313 C 225.815 218.924,226.400 219.644,226.400 219.912 C 226.400 220.180,226.580 220.400,226.800 220.400 C 227.020 220.400,227.200 220.255,227.200 220.078 C 227.200 219.632,224.648 217.200,224.181 217.201 C 223.971 217.201,224.385 217.702,225.100 218.313 M50.000 219.400 C 50.000 219.950,50.155 220.400,50.345 220.400 C 50.534 220.400,50.603 219.950,50.498 219.400 C 50.393 218.850,50.238 218.400,50.153 218.400 C 50.069 218.400,50.000 218.850,50.000 219.400 M269.087 219.446 C 268.951 219.582,268.246 219.849,267.520 220.039 C 266.234 220.377,266.240 220.382,267.765 220.208 C 269.169 220.048,270.836 219.200,269.747 219.200 C 269.519 219.200,269.222 219.311,269.087 219.446 M92.000 219.933 C 92.000 220.269,89.944 220.425,84.700 220.490 L 77.400 220.580 84.570 220.700 C 91.236 220.811,93.110 220.577,92.273 219.740 C 92.123 219.590,92.000 219.677,92.000 219.933 M56.100 220.296 C 57.365 220.375,59.435 220.375,60.700 220.296 C 61.965 220.216,60.930 220.151,58.400 220.151 C 55.870 220.151,54.835 220.216,56.100 220.296 M255.500 220.697 C 257.095 220.773,259.705 220.773,261.300 220.697 C 262.895 220.621,261.590 220.559,258.400 220.559 C 255.210 220.559,253.905 220.621,255.500 220.697 M20.267 238.667 C 20.120 238.813,20.003 239.128,20.006 239.367 C 20.010 239.628,20.137 239.604,20.326 239.306 C 20.561 238.936,23.653 238.784,32.620 238.700 L 44.600 238.588 32.567 238.494 C 25.948 238.442,20.413 238.520,20.267 238.667 M105.911 238.693 C 106.851 238.778,108.291 238.777,109.111 238.691 C 109.930 238.605,109.160 238.536,107.400 238.537 C 105.640 238.539,104.970 238.609,105.911 238.693 M174.500 238.698 C 176.425 238.771,179.575 238.771,181.500 238.698 C 183.425 238.625,181.850 238.565,178.000 238.565 C 174.150 238.565,172.575 238.625,174.500 238.698 M229.500 238.689 C 230.215 238.778,231.385 238.778,232.100 238.689 C 232.815 238.601,232.230 238.528,230.800 238.528 C 229.370 238.528,228.785 238.601,229.500 238.689 M267.091 238.689 C 267.801 238.777,269.061 238.779,269.891 238.692 C 270.721 238.605,270.140 238.533,268.600 238.531 C 267.060 238.529,266.381 238.600,267.091 238.689 M298.667 238.667 C 298.520 238.813,298.400 240.889,298.400 243.280 C 298.400 247.407,298.355 247.645,297.500 248.009 C 296.613 248.386,296.615 248.391,297.600 248.296 C 298.597 248.200,298.600 248.186,298.713 243.519 L 298.825 238.838 301.313 238.696 L 303.800 238.554 301.367 238.477 C 300.028 238.435,298.813 238.520,298.667 238.667 M354.921 238.698 C 357.077 238.771,360.497 238.770,362.521 238.698 C 364.544 238.625,362.780 238.566,358.600 238.567 C 354.420 238.567,352.764 238.626,354.921 238.698 M52.000 239.220 C 54.414 239.650,56.306 239.613,54.200 239.177 C 53.320 238.995,52.060 238.858,51.400 238.873 C 50.500 238.893,50.650 238.980,52.000 239.220 M102.100 239.646 C 100.737 240.519,100.295 241.106,101.500 240.443 C 102.418 239.939,103.856 238.827,103.600 238.819 C 103.490 238.816,102.815 239.188,102.100 239.646 M165.400 239.200 C 164.039 239.444,163.979 239.492,165.000 239.520 C 165.660 239.539,166.920 239.405,167.800 239.223 C 169.893 238.790,167.802 238.770,165.400 239.200 M189.200 239.438 C 190.850 239.741,192.380 239.930,192.600 239.857 C 193.092 239.694,188.031 238.783,186.967 238.843 C 186.545 238.867,187.550 239.135,189.200 239.438 M233.600 244.832 L 233.600 250.863 230.599 250.732 C 228.949 250.659,227.599 250.735,227.599 250.900 C 227.600 251.065,229.040 251.200,230.800 251.200 L 234.000 251.200 234.000 245.000 C 234.000 241.590,233.910 238.800,233.800 238.800 C 233.690 238.800,233.600 241.514,233.600 244.832 M265.289 244.900 L 265.200 251.200 268.300 251.121 L 271.400 251.041 268.510 250.903 L 265.621 250.765 265.499 244.683 L 265.378 238.600 265.289 244.900 M272.800 239.133 C 273.130 239.336,273.850 239.624,274.400 239.771 C 275.095 239.957,275.217 239.925,274.800 239.667 C 274.470 239.464,273.750 239.176,273.200 239.029 C 272.505 238.843,272.383 238.875,272.800 239.133 M304.394 244.600 L 304.200 250.600 300.800 250.600 C 298.930 250.600,296.950 250.467,296.400 250.304 C 295.644 250.080,295.692 250.149,296.600 250.586 C 298.182 251.348,304.340 251.421,304.624 250.682 C 304.733 250.396,304.770 247.561,304.705 244.382 L 304.587 238.600 304.394 244.600 M345.000 239.200 C 343.639 239.444,343.579 239.492,344.600 239.520 C 345.260 239.539,346.520 239.405,347.400 239.223 C 349.493 238.790,347.402 238.770,345.000 239.200 M369.400 239.166 C 372.139 239.729,374.669 239.999,373.800 239.636 C 373.360 239.451,371.830 239.196,370.400 239.069 C 368.504 238.900,368.233 238.926,369.400 239.166 M173.400 239.592 C 171.270 239.795,172.220 239.876,177.367 239.929 C 181.088 239.968,184.058 239.934,183.967 239.853 C 183.600 239.528,176.027 239.341,173.400 239.592 M354.000 239.597 C 351.770 239.789,352.892 239.874,358.367 239.928 C 362.418 239.968,365.658 239.935,365.567 239.855 C 365.205 239.540,356.829 239.353,354.000 239.597 M26.562 240.154 C 26.445 240.459,26.406 241.494,26.475 242.454 L 26.600 244.200 37.000 244.210 L 47.400 244.220 37.100 244.103 L 26.800 243.987 26.800 242.000 L 26.800 240.014 37.100 239.900 L 47.400 239.786 37.087 239.693 C 28.605 239.616,26.737 239.698,26.562 240.154 M57.161 240.222 C 57.909 240.547,58.609 240.725,58.716 240.617 C 58.940 240.394,56.986 239.592,56.274 239.616 C 56.013 239.624,56.412 239.897,57.161 240.222 M50.524 240.538 C 53.888 241.501,54.001 242.406,50.880 243.366 C 49.846 243.684,49.321 243.957,49.713 243.972 C 50.665 244.009,53.028 243.002,53.400 242.400 C 53.894 241.600,52.318 240.450,50.400 240.211 L 48.600 239.986 50.524 240.538 M106.074 240.511 C 105.840 240.792,104.202 242.007,102.432 243.211 C 100.663 244.415,99.212 245.532,99.208 245.693 C 99.198 246.046,105.710 241.431,106.408 240.591 C 106.677 240.266,106.808 240.000,106.698 240.000 C 106.588 240.000,106.307 240.230,106.074 240.511 M159.800 240.400 C 159.296 240.617,159.222 240.744,159.600 240.744 C 159.930 240.744,160.560 240.589,161.000 240.400 C 161.504 240.183,161.578 240.056,161.200 240.056 C 160.870 240.056,160.240 240.211,159.800 240.400 M186.986 240.616 C 188.079 240.916,189.040 241.093,189.124 241.010 C 189.324 240.810,186.369 239.995,185.600 240.038 C 185.270 240.056,185.894 240.317,186.986 240.616 M339.400 240.400 C 338.896 240.617,338.822 240.744,339.200 240.744 C 339.530 240.744,340.160 240.589,340.600 240.400 C 341.104 240.183,341.178 240.056,340.800 240.056 C 340.470 240.056,339.840 240.211,339.400 240.400 M368.800 240.600 C 370.010 240.892,371.062 241.070,371.138 240.995 C 371.351 240.783,368.299 240.001,367.400 240.036 C 366.960 240.054,367.590 240.307,368.800 240.600 M165.400 240.800 C 164.381 241.238,165.432 241.238,166.800 240.800 C 167.604 240.543,167.643 240.477,167.000 240.468 C 166.560 240.462,165.840 240.611,165.400 240.800 M345.200 240.806 C 344.778 241.082,345.015 241.123,346.000 240.942 C 347.725 240.625,348.051 240.398,346.767 240.406 C 346.235 240.409,345.530 240.589,345.200 240.806 M59.333 242.000 C 59.333 242.641,59.483 243.072,59.667 242.959 C 59.850 242.845,60.000 242.414,60.000 242.000 C 60.000 241.586,59.850 241.155,59.667 241.041 C 59.483 240.928,59.333 241.359,59.333 242.000 M96.197 243.451 C 92.573 245.854,90.400 247.476,92.000 246.582 C 93.349 245.829,100.400 241.111,100.400 240.962 C 100.400 240.674,100.248 240.764,96.197 243.451 M157.000 241.544 C 155.169 242.675,154.314 243.818,154.513 244.867 C 154.684 245.761,154.693 245.756,154.746 244.770 C 154.805 243.654,155.904 242.464,157.800 241.465 C 158.460 241.117,158.820 240.825,158.600 240.818 C 158.380 240.810,157.660 241.137,157.000 241.544 M195.855 241.400 C 195.982 241.730,196.358 242.000,196.692 242.000 C 197.185 242.000,197.205 241.888,196.800 241.400 C 196.526 241.070,196.150 240.800,195.964 240.800 C 195.777 240.800,195.729 241.070,195.855 241.400 M278.000 241.133 C 278.330 241.336,279.050 241.624,279.600 241.771 C 280.295 241.957,280.417 241.925,280.000 241.667 C 279.670 241.464,278.950 241.176,278.400 241.029 C 277.705 240.843,277.583 240.875,278.000 241.133 M335.890 241.984 C 334.155 243.084,333.092 244.825,333.752 245.485 C 333.888 245.622,334.006 245.388,334.013 244.967 C 334.031 243.856,334.830 242.965,336.833 241.819 C 337.805 241.264,338.410 240.807,338.178 240.805 C 337.946 240.802,336.917 241.333,335.890 241.984 M109.200 241.301 C 109.200 241.407,109.965 241.991,110.900 242.598 C 111.835 243.206,113.230 244.175,114.000 244.751 L 115.400 245.800 107.600 246.018 L 99.800 246.235 107.567 246.218 C 116.267 246.198,116.578 246.079,113.495 243.961 C 110.347 241.798,109.200 241.087,109.200 241.301 M271.286 245.900 L 271.371 250.600 271.499 246.100 C 271.569 243.625,271.794 241.600,271.998 241.600 C 272.203 241.600,273.300 241.967,274.437 242.415 C 275.574 242.863,276.574 243.159,276.660 243.073 C 276.864 242.870,272.500 241.200,271.764 241.200 C 271.306 241.200,271.216 242.080,271.286 245.900 M372.176 241.813 C 372.660 242.179,373.716 242.373,374.976 242.328 L 377.000 242.256 375.000 242.104 C 373.900 242.020,372.829 241.783,372.620 241.576 C 372.411 241.369,372.051 241.206,371.820 241.213 C 371.589 241.220,371.749 241.490,372.176 241.813 M117.000 242.607 C 117.440 242.966,118.160 243.435,118.600 243.651 L 119.400 244.044 118.600 243.393 C 118.160 243.034,117.440 242.565,117.000 242.349 L 116.200 241.956 117.000 242.607 M191.905 242.283 C 192.402 242.379,193.122 242.375,193.505 242.275 C 193.887 242.175,193.480 242.096,192.600 242.101 C 191.720 242.105,191.407 242.187,191.905 242.283 M277.600 243.600 C 277.930 243.813,278.470 243.988,278.800 243.988 C 279.333 243.988,279.333 243.945,278.800 243.600 C 278.470 243.387,277.930 243.212,277.600 243.212 C 277.067 243.212,277.067 243.255,277.600 243.600 M340.263 244.083 C 339.938 245.325,340.185 245.389,340.726 244.202 C 340.977 243.651,341.028 243.200,340.838 243.200 C 340.648 243.200,340.389 243.597,340.263 244.083 M286.000 244.169 C 286.550 244.501,287.270 244.773,287.600 244.774 C 288.403 244.776,287.452 244.216,286.000 243.832 L 285.000 243.567 286.000 244.169 M53.600 244.394 C 52.610 244.559,50.765 244.821,49.500 244.976 C 48.235 245.131,47.200 245.425,47.200 245.629 C 47.200 246.098,48.680 246.118,48.968 245.653 C 49.086 245.461,50.419 245.183,51.930 245.034 C 53.441 244.885,55.200 244.607,55.839 244.416 C 57.274 243.987,56.113 243.975,53.600 244.394 M119.800 244.294 C 120.441 244.953,126.891 248.842,127.061 248.672 C 127.146 248.587,125.637 247.562,123.708 246.394 C 119.658 243.941,119.237 243.715,119.800 244.294 M281.002 244.741 C 281.883 245.150,283.053 245.600,283.602 245.742 C 284.151 245.885,283.879 245.667,282.998 245.259 C 282.117 244.850,280.947 244.400,280.398 244.258 C 279.849 244.115,280.121 244.333,281.002 244.741 M288.800 245.133 C 289.130 245.336,289.850 245.624,290.400 245.771 C 291.095 245.957,291.217 245.925,290.800 245.667 C 290.470 245.464,289.750 245.176,289.200 245.029 C 288.505 244.843,288.383 244.875,288.800 245.133 M26.598 245.700 C 26.501 245.975,26.372 247.190,26.311 248.400 L 26.200 250.600 23.099 250.600 C 21.394 250.600,19.999 250.735,19.999 250.900 C 20.000 251.065,21.421 251.200,23.157 251.200 C 26.777 251.200,26.800 251.178,26.800 247.719 L 26.800 245.504 34.500 245.663 C 38.735 245.750,41.660 245.703,41.000 245.558 C 38.651 245.042,26.789 245.159,26.598 245.700 M340.400 245.894 C 340.400 246.777,343.879 248.833,345.287 248.781 C 345.569 248.771,344.900 248.414,343.800 247.988 C 342.700 247.562,341.485 246.831,341.100 246.362 C 340.715 245.894,340.400 245.683,340.400 245.894 M43.000 246.339 C 44.237 246.868,46.310 247.277,45.600 246.851 C 45.270 246.654,44.370 246.380,43.600 246.244 C 42.656 246.077,42.460 246.108,43.000 246.339 M50.000 246.400 C 51.368 246.838,52.419 246.838,51.400 246.400 C 50.960 246.211,50.240 246.062,49.800 246.068 C 49.157 246.077,49.196 246.143,50.000 246.400 M161.802 246.741 C 162.666 247.762,164.449 248.809,165.280 248.784 C 165.566 248.776,165.171 248.496,164.403 248.163 C 163.634 247.830,162.556 247.162,162.006 246.678 L 161.006 245.800 161.802 246.741 M285.200 246.333 C 285.530 246.536,286.250 246.824,286.800 246.971 C 287.495 247.157,287.617 247.125,287.200 246.867 C 286.870 246.664,286.150 246.376,285.600 246.229 C 284.905 246.043,284.783 246.075,285.200 246.333 M334.367 246.545 C 334.900 247.201,336.400 248.193,336.400 247.889 C 336.400 247.813,335.815 247.322,335.100 246.799 C 334.296 246.210,334.016 246.113,334.367 246.545 M373.360 247.447 C 373.360 248.652,373.424 248.766,373.723 248.095 C 373.940 247.609,373.940 247.022,373.723 246.634 C 373.454 246.153,373.360 246.362,373.360 247.447 M53.200 247.133 C 53.530 247.336,54.250 247.624,54.800 247.771 C 55.495 247.957,55.617 247.925,55.200 247.667 C 54.870 247.464,54.150 247.176,53.600 247.029 C 52.905 246.843,52.783 246.875,53.200 247.133 M89.700 247.646 C 88.337 248.519,87.895 249.106,89.100 248.443 C 90.018 247.939,91.456 246.827,91.200 246.819 C 91.090 246.816,90.415 247.188,89.700 247.646 M191.376 247.422 C 190.626 248.023,190.630 248.030,191.474 247.622 C 192.511 247.121,195.977 247.071,196.727 247.546 C 197.109 247.789,196.914 248.021,196.014 248.394 C 195.332 248.677,194.848 248.981,194.938 249.071 C 195.165 249.299,198.000 247.915,198.000 247.576 C 198.000 246.691,192.450 246.562,191.376 247.422 M294.000 247.133 C 294.330 247.336,295.050 247.624,295.600 247.771 C 296.295 247.957,296.417 247.925,296.000 247.667 C 295.670 247.464,294.950 247.176,294.400 247.029 C 293.705 246.843,293.583 246.875,294.000 247.133 M93.971 248.996 C 90.562 251.377,84.689 251.847,87.300 249.529 C 88.093 248.826,88.047 248.832,86.912 249.584 C 84.775 251.000,84.948 251.200,88.310 251.200 C 91.429 251.200,93.849 250.134,96.580 247.558 C 97.478 246.712,96.359 247.328,93.971 248.996 M120.887 249.201 L 123.973 251.200 127.435 251.200 C 131.182 251.200,131.379 250.935,128.731 249.458 L 127.400 248.715 128.600 249.743 L 129.800 250.771 126.912 250.786 C 124.159 250.799,123.896 250.717,121.242 249.000 C 119.712 248.010,118.311 247.200,118.130 247.201 C 117.948 247.202,119.189 248.102,120.887 249.201 M288.400 247.533 C 288.730 247.736,289.450 248.024,290.000 248.171 C 290.695 248.357,290.817 248.325,290.400 248.067 C 290.070 247.864,289.350 247.576,288.800 247.429 C 288.105 247.243,287.983 247.275,288.400 247.533 M48.800 248.333 C 49.130 248.536,49.850 248.824,50.400 248.971 C 51.095 249.157,51.217 249.125,50.800 248.867 C 50.470 248.664,49.750 248.376,49.200 248.229 C 48.505 248.043,48.383 248.075,48.800 248.333 M158.000 248.600 C 158.550 248.914,159.180 249.172,159.400 249.172 C 159.620 249.172,159.350 248.914,158.800 248.600 C 158.250 248.286,157.620 248.028,157.400 248.028 C 157.180 248.028,157.450 248.286,158.000 248.600 M379.600 248.666 C 379.600 248.886,378.745 249.266,377.700 249.511 L 375.800 249.956 377.600 249.757 C 379.417 249.557,380.376 249.043,379.873 248.540 C 379.723 248.390,379.600 248.446,379.600 248.666 M58.400 249.133 C 58.730 249.336,59.450 249.624,60.000 249.771 C 60.695 249.957,60.817 249.925,60.400 249.667 C 60.070 249.464,59.350 249.176,58.800 249.029 C 58.105 248.843,57.983 248.875,58.400 249.133 M166.600 249.190 C 167.364 249.528,169.914 249.757,169.567 249.456 C 169.475 249.376,168.590 249.204,167.600 249.073 C 166.398 248.914,166.066 248.953,166.600 249.190 M184.400 249.445 L 181.400 249.972 184.093 249.775 C 185.575 249.667,187.195 249.415,187.693 249.215 C 188.868 248.743,188.088 248.797,184.400 249.445 M347.000 249.204 C 347.767 249.530,351.111 249.753,350.767 249.456 C 350.675 249.377,349.610 249.211,348.400 249.088 C 347.031 248.949,346.502 248.992,347.000 249.204 M369.000 249.200 L 367.000 249.474 368.800 249.497 C 369.790 249.510,371.050 249.376,371.600 249.200 C 372.844 248.801,371.906 248.801,369.000 249.200 M160.600 249.600 C 161.040 249.789,161.760 249.938,162.200 249.932 C 162.843 249.923,162.804 249.857,162.000 249.600 C 160.632 249.162,159.581 249.162,160.600 249.600 M192.600 249.600 C 192.096 249.817,192.022 249.944,192.400 249.944 C 192.730 249.944,193.360 249.789,193.800 249.600 C 194.304 249.383,194.378 249.256,194.000 249.256 C 193.670 249.256,193.040 249.411,192.600 249.600 M340.600 249.600 C 341.040 249.789,341.760 249.944,342.200 249.944 L 343.000 249.944 342.200 249.600 C 341.760 249.411,341.040 249.256,340.600 249.256 L 339.800 249.256 340.600 249.600 M170.705 249.883 C 171.202 249.979,171.922 249.975,172.305 249.875 C 172.687 249.775,172.280 249.696,171.400 249.701 C 170.520 249.705,170.207 249.787,170.705 249.883 M352.100 249.887 C 352.705 249.978,353.695 249.978,354.300 249.887 C 354.905 249.795,354.410 249.720,353.200 249.720 C 351.990 249.720,351.495 249.795,352.100 249.887 M363.507 249.890 C 364.226 249.979,365.306 249.977,365.907 249.886 C 366.508 249.795,365.920 249.722,364.600 249.724 C 363.280 249.726,362.788 249.801,363.507 249.890 M54.600 250.576 C 56.344 251.430,63.702 251.464,62.576 250.613 C 61.651 249.913,61.044 249.823,61.427 250.443 C 61.725 250.926,55.694 250.775,54.200 250.262 C 53.760 250.111,53.940 250.253,54.600 250.576 M176.500 250.276 C 176.885 250.376,177.515 250.376,177.900 250.276 C 178.285 250.175,177.970 250.093,177.200 250.093 C 176.430 250.093,176.115 250.175,176.500 250.276 M167.000 250.818 C 169.747 251.246,172.031 251.212,169.600 250.780 C 168.610 250.603,167.170 250.470,166.400 250.483 C 165.255 250.503,165.365 250.564,167.000 250.818 M185.200 250.800 C 183.201 251.221,185.252 251.238,187.600 250.820 C 189.224 250.532,189.263 250.500,188.000 250.503 C 187.230 250.504,185.970 250.638,185.200 250.800 M348.000 250.817 C 349.210 250.984,350.830 251.115,351.600 251.107 C 352.722 251.096,352.603 251.031,351.000 250.782 C 349.900 250.610,348.280 250.480,347.400 250.491 C 346.007 250.510,346.084 250.552,348.000 250.817 M369.705 250.687 C 370.314 250.779,371.214 250.777,371.705 250.682 C 372.197 250.587,371.700 250.511,370.600 250.514 C 369.500 250.517,369.097 250.595,369.705 250.687 M366.305 251.083 C 366.802 251.179,367.522 251.175,367.905 251.075 C 368.287 250.975,367.880 250.896,367.000 250.901 C 366.120 250.905,365.807 250.987,366.305 251.083 " stroke="none" fill="#fce061" fill-rule="evenodd"></path><path id="path3" d="M199.200 157.600 L 19.800 157.801 199.076 157.901 C 318.270 157.967,378.436 157.866,378.600 157.600 C 378.736 157.380,378.792 157.245,378.724 157.299 C 378.656 157.354,297.870 157.489,199.200 157.600 M37.980 176.910 C 38.175 178.558,38.183 178.567,38.319 177.249 C 38.396 176.506,38.306 175.746,38.120 175.560 C 37.933 175.373,37.871 175.981,37.980 176.910 M76.400 175.618 C 75.962 175.915,76.124 175.952,77.000 175.756 C 78.471 175.427,78.790 175.198,77.767 175.206 C 77.345 175.209,76.730 175.395,76.400 175.618 M92.200 198.000 C 92.200 210.498,92.335 220.640,92.500 220.538 C 92.892 220.296,92.892 175.704,92.500 175.462 C 92.335 175.360,92.200 185.502,92.200 198.000 M96.979 175.710 C 96.872 175.990,96.833 180.085,96.893 184.810 L 97.002 193.400 97.201 184.300 C 97.396 175.389,97.377 174.672,96.979 175.710 M123.783 175.700 C 123.678 175.975,123.639 185.020,123.696 195.800 L 123.800 215.400 124.000 195.300 C 124.110 184.245,124.149 175.200,124.087 175.200 C 124.026 175.200,123.889 175.425,123.783 175.700 M144.714 185.113 C 144.777 190.544,144.957 195.117,145.114 195.275 C 145.271 195.432,145.349 191.118,145.286 185.687 C 145.223 180.256,145.043 175.683,144.886 175.525 C 144.729 175.368,144.651 179.682,144.714 185.113 M149.380 175.708 C 149.273 175.987,149.234 180.532,149.293 185.808 L 149.401 195.400 149.601 185.300 C 149.796 175.419,149.778 174.670,149.380 175.708 M175.383 175.700 C 175.278 175.975,175.239 184.570,175.296 194.800 L 175.400 213.400 175.600 194.300 C 175.710 183.795,175.749 175.200,175.687 175.200 C 175.626 175.200,175.489 175.425,175.383 175.700 M196.200 198.000 C 196.200 210.498,196.335 220.640,196.500 220.538 C 196.665 220.436,196.800 210.294,196.800 198.000 C 196.800 185.706,196.665 175.564,196.500 175.462 C 196.335 175.360,196.200 185.502,196.200 198.000 M278.662 175.500 C 278.560 175.665,289.242 175.800,302.400 175.800 C 315.558 175.800,326.240 175.665,326.138 175.500 C 326.036 175.335,315.354 175.200,302.400 175.200 C 289.446 175.200,278.764 175.335,278.662 175.500 M378.200 198.000 C 378.200 210.498,378.335 220.640,378.500 220.538 C 378.665 220.436,378.800 210.294,378.800 198.000 C 378.800 185.706,378.665 175.564,378.500 175.462 C 378.335 175.360,378.200 185.502,378.200 198.000 M200.151 180.400 C 200.151 182.930,200.216 183.965,200.296 182.700 C 200.375 181.435,200.375 179.365,200.296 178.100 C 200.216 176.835,200.151 177.870,200.151 180.400 M22.175 177.700 L 21.000 179.000 22.300 177.825 C 23.015 177.179,23.600 176.594,23.600 176.525 C 23.600 176.216,23.270 176.488,22.175 177.700 M42.800 176.525 C 42.800 176.594,43.385 177.179,44.100 177.825 L 45.400 179.000 44.225 177.700 C 43.130 176.488,42.800 176.216,42.800 176.525 M73.241 177.814 C 72.559 178.592,72.000 179.348,72.000 179.494 C 72.000 179.640,72.136 179.589,72.303 179.380 C 72.470 179.171,73.133 178.415,73.778 177.700 C 74.422 176.985,74.845 176.400,74.716 176.400 C 74.588 176.400,73.924 177.036,73.241 177.814 M38.400 178.925 C 38.400 178.994,38.985 179.579,39.700 180.225 L 41.000 181.400 39.825 180.100 C 38.730 178.888,38.400 178.616,38.400 178.925 M48.600 182.000 C 49.683 183.100,50.660 184.000,50.770 184.000 C 50.880 184.000,50.083 183.100,49.000 182.000 C 47.917 180.900,46.940 180.000,46.830 180.000 C 46.720 180.000,47.517 180.900,48.600 182.000 M222.968 187.800 C 222.968 192.200,223.026 194.055,223.098 191.921 C 223.170 189.788,223.170 186.188,223.099 183.921 C 223.027 181.655,222.968 183.400,222.968 187.800 M71.784 197.800 C 71.784 207.480,71.836 211.383,71.900 206.473 C 71.963 201.563,71.963 193.643,71.900 188.873 C 71.836 184.103,71.784 188.120,71.784 197.800 M20.150 185.800 C 20.151 188.220,20.216 189.158,20.296 187.885 C 20.376 186.612,20.375 184.632,20.294 183.485 C 20.214 182.338,20.149 183.380,20.150 185.800 M273.782 197.600 C 273.782 206.510,273.835 210.155,273.900 205.700 C 273.964 201.245,273.964 193.955,273.900 189.500 C 273.835 185.045,273.782 188.690,273.782 197.600 M67.340 185.200 C 67.340 187.070,67.409 187.835,67.493 186.900 C 67.577 185.965,67.577 184.435,67.493 183.500 C 67.409 182.565,67.340 183.330,67.340 185.200 M43.200 183.325 C 43.200 183.394,43.785 183.979,44.500 184.625 L 45.800 185.800 44.625 184.500 C 43.530 183.288,43.200 183.016,43.200 183.325 M313.790 184.500 C 313.472 185.359,313.384 220.734,313.700 220.538 C 313.865 220.436,314.000 212.278,314.000 202.410 C 314.000 188.430,314.110 184.422,314.500 184.265 C 314.892 184.107,314.889 184.056,314.487 184.032 C 314.206 184.014,313.892 184.225,313.790 184.500 M54.783 187.700 C 56.441 189.466,56.800 189.784,56.800 189.483 C 56.800 189.419,55.945 188.564,54.900 187.583 L 53.000 185.800 54.783 187.700 M48.600 188.400 C 49.459 189.280,50.252 190.000,50.362 190.000 C 50.472 190.000,49.859 189.280,49.000 188.400 C 48.141 187.520,47.348 186.800,47.238 186.800 C 47.128 186.800,47.741 187.520,48.600 188.400 M20.400 190.525 C 20.400 190.594,20.985 191.179,21.700 191.825 L 23.000 193.000 21.825 191.700 C 20.730 190.488,20.400 190.216,20.400 190.525 M60.200 192.800 C 61.283 193.900,62.260 194.800,62.370 194.800 C 62.480 194.800,61.683 193.900,60.600 192.800 C 59.517 191.700,58.540 190.800,58.430 190.800 C 58.320 190.800,59.117 191.700,60.200 192.800 M53.200 192.600 C 53.946 193.370,54.647 194.000,54.757 194.000 C 54.867 194.000,54.346 193.370,53.600 192.600 C 52.854 191.830,52.153 191.200,52.043 191.200 C 51.933 191.200,52.454 191.830,53.200 192.600 M107.800 193.600 L 97.000 193.820 107.676 193.910 C 114.461 193.967,118.443 193.854,118.600 193.600 C 118.736 193.380,118.792 193.241,118.724 193.290 C 118.656 193.340,113.740 193.479,107.800 193.600 M27.200 197.000 C 28.395 198.210,29.463 199.200,29.573 199.200 C 29.683 199.200,28.795 198.210,27.600 197.000 C 26.405 195.790,25.337 194.800,25.227 194.800 C 25.117 194.800,26.005 195.790,27.200 197.000 M58.400 197.400 C 59.146 198.170,59.847 198.800,59.957 198.800 C 60.067 198.800,59.546 198.170,58.800 197.400 C 58.054 196.630,57.353 196.000,57.243 196.000 C 57.133 196.000,57.654 196.630,58.400 197.400 M64.975 197.100 C 65.621 197.815,66.431 198.386,66.775 198.368 C 67.313 198.341,67.317 198.307,66.800 198.119 C 66.470 197.998,65.660 197.428,65.000 196.850 L 63.800 195.800 64.975 197.100 M20.169 198.137 C 20.055 198.433,20.025 200.008,20.102 201.637 L 20.241 204.600 20.321 201.333 C 20.373 199.158,20.567 197.999,20.900 197.865 C 21.292 197.707,21.289 197.656,20.887 197.632 C 20.606 197.614,20.282 197.842,20.169 198.137 M23.000 199.600 C 23.859 200.480,24.652 201.200,24.762 201.200 C 24.872 201.200,24.259 200.480,23.400 199.600 C 22.541 198.720,21.748 198.000,21.638 198.000 C 21.528 198.000,22.141 198.720,23.000 199.600 M62.600 201.200 C 63.459 202.080,64.252 202.800,64.362 202.800 C 64.472 202.800,63.859 202.080,63.000 201.200 C 62.141 200.320,61.348 199.600,61.238 199.600 C 61.128 199.600,61.741 200.320,62.600 201.200 M144.980 200.908 C 144.873 201.188,144.834 205.643,144.893 210.808 L 145.001 220.200 145.201 210.300 C 145.396 200.613,145.378 199.870,144.980 200.908 M149.114 210.313 C 149.177 215.744,149.357 220.317,149.514 220.475 C 149.671 220.632,149.749 216.318,149.686 210.887 C 149.623 205.456,149.443 200.883,149.286 200.725 C 149.129 200.568,149.051 204.882,149.114 210.313 M352.267 200.667 C 352.120 200.813,352.000 205.319,352.000 210.680 L 352.000 220.426 341.619 220.313 C 335.910 220.251,331.377 220.338,331.546 220.507 C 331.716 220.676,336.432 220.766,342.027 220.707 L 352.200 220.600 352.400 210.500 C 352.510 204.944,352.585 200.399,352.567 200.400 C 352.548 200.400,352.413 200.520,352.267 200.667 M33.400 202.800 C 34.483 203.900,35.460 204.800,35.570 204.800 C 35.680 204.800,34.883 203.900,33.800 202.800 C 32.717 201.700,31.740 200.800,31.630 200.800 C 31.520 200.800,32.317 201.700,33.400 202.800 M356.573 210.400 C 356.573 215.790,356.630 217.995,356.699 215.300 C 356.768 212.605,356.768 208.195,356.699 205.500 C 356.630 202.805,356.573 205.010,356.573 210.400 M211.000 204.400 C 212.750 206.160,214.271 207.600,214.381 207.600 C 214.491 207.600,213.150 206.160,211.400 204.400 C 209.650 202.640,208.129 201.200,208.019 201.200 C 207.909 201.200,209.250 202.640,211.000 204.400 M97.067 202.267 C 96.697 202.636,96.729 220.309,97.100 220.538 C 97.265 220.640,97.400 216.511,97.400 211.362 C 97.400 206.213,97.385 202.000,97.367 202.000 C 97.348 202.000,97.213 202.120,97.067 202.267 M28.600 204.800 C 29.459 205.680,30.252 206.400,30.362 206.400 C 30.472 206.400,29.859 205.680,29.000 204.800 C 28.141 203.920,27.348 203.200,27.238 203.200 C 27.128 203.200,27.741 203.920,28.600 204.800 M66.944 209.200 C 66.944 211.290,67.012 212.145,67.094 211.100 C 67.176 210.055,67.176 208.345,67.094 207.300 C 67.012 206.255,66.944 207.110,66.944 209.200 M40.400 209.400 C 41.595 210.610,42.663 211.600,42.773 211.600 C 42.883 211.600,41.995 210.610,40.800 209.400 C 39.605 208.190,38.537 207.200,38.427 207.200 C 38.317 207.200,39.205 208.190,40.400 209.400 M34.200 210.000 C 35.283 211.100,36.260 212.000,36.370 212.000 C 36.480 212.000,35.683 211.100,34.600 210.000 C 33.517 208.900,32.540 208.000,32.430 208.000 C 32.320 208.000,33.117 208.900,34.200 210.000 M218.400 211.310 C 218.400 211.371,219.795 212.766,221.500 214.410 L 224.600 217.400 221.610 214.300 C 218.833 211.421,218.400 211.017,218.400 211.310 M39.583 214.900 C 40.564 215.945,41.419 216.800,41.483 216.800 C 41.784 216.800,41.466 216.441,39.700 214.783 L 37.800 213.000 39.583 214.900 M47.064 215.600 C 48.420 217.030,49.614 218.560,49.718 219.000 C 49.905 219.790,49.908 219.790,49.954 218.988 C 49.983 218.473,49.014 217.232,47.300 215.588 L 44.600 213.000 47.064 215.600 M21.200 217.325 C 21.200 217.394,21.785 217.979,22.500 218.625 L 23.800 219.800 22.625 218.500 C 21.530 217.288,21.200 217.016,21.200 217.325 M44.400 219.793 C 44.400 220.296,42.997 220.403,35.100 220.500 L 25.800 220.615 35.300 220.708 C 44.564 220.798,44.800 220.780,44.800 220.000 C 44.800 219.560,44.710 219.200,44.600 219.200 C 44.490 219.200,44.400 219.467,44.400 219.793 M200.662 220.500 C 200.764 220.665,206.867 220.800,214.224 220.800 C 221.581 220.800,227.600 220.665,227.600 220.500 C 227.600 220.335,221.497 220.200,214.038 220.200 C 206.579 220.200,200.560 220.335,200.662 220.500 M53.119 220.698 C 54.944 220.772,57.824 220.772,59.519 220.697 C 61.214 220.622,59.720 220.561,56.200 220.562 C 52.680 220.562,51.294 220.624,53.119 220.698 M129.100 220.699 C 132.015 220.767,136.785 220.767,139.700 220.699 C 142.615 220.631,140.230 220.575,134.400 220.575 C 128.570 220.575,126.185 220.631,129.100 220.699 M233.700 220.687 C 234.305 220.778,235.295 220.778,235.900 220.687 C 236.505 220.595,236.010 220.520,234.800 220.520 C 233.590 220.520,233.095 220.595,233.700 220.687 M264.900 220.687 C 265.505 220.778,266.495 220.778,267.100 220.687 C 267.705 220.595,267.210 220.520,266.000 220.520 C 264.790 220.520,264.295 220.595,264.900 220.687 M175.900 238.295 C 177.055 238.376,178.945 238.376,180.100 238.295 C 181.255 238.214,180.310 238.148,178.000 238.148 C 175.690 238.148,174.745 238.214,175.900 238.295 M356.515 238.296 C 357.788 238.376,359.768 238.375,360.915 238.294 C 362.062 238.214,361.020 238.149,358.600 238.150 C 356.180 238.151,355.242 238.216,356.515 238.296 M46.100 238.694 C 47.145 238.776,48.855 238.776,49.900 238.694 C 50.945 238.612,50.090 238.544,48.000 238.544 C 45.910 238.544,45.055 238.612,46.100 238.694 M169.105 238.683 C 169.602 238.779,170.322 238.775,170.705 238.675 C 171.087 238.575,170.680 238.496,169.800 238.501 C 168.920 238.505,168.607 238.587,169.105 238.683 M185.300 238.676 C 185.685 238.776,186.315 238.776,186.700 238.676 C 187.085 238.575,186.770 238.493,186.000 238.493 C 185.230 238.493,184.915 238.575,185.300 238.676 M227.376 238.918 C 227.267 239.202,227.233 242.127,227.300 245.418 L 227.423 251.400 227.512 245.133 C 227.576 240.563,227.735 238.812,228.100 238.665 C 228.492 238.507,228.489 238.456,228.087 238.432 C 227.806 238.414,227.486 238.633,227.376 238.918 M233.489 238.686 C 233.826 238.926,234.017 240.888,234.106 245.017 L 234.234 251.000 234.217 244.833 C 234.203 239.700,234.099 238.638,233.600 238.502 C 233.167 238.385,233.136 238.436,233.489 238.686 M264.976 238.918 C 264.867 239.204,264.833 242.039,264.900 245.218 L 265.024 251.000 265.112 244.933 C 265.176 240.523,265.336 238.812,265.700 238.665 C 266.092 238.507,266.089 238.456,265.687 238.432 C 265.406 238.414,265.085 238.633,264.976 238.918 M298.173 238.927 C 298.061 239.217,298.023 241.332,298.088 243.627 L 298.205 247.800 298.403 243.099 C 298.598 238.452,298.567 237.899,298.173 238.927 M348.700 238.682 C 349.195 238.778,350.005 238.778,350.500 238.682 C 350.995 238.587,350.590 238.509,349.600 238.509 C 348.610 238.509,348.205 238.587,348.700 238.682 M366.705 238.683 C 367.202 238.779,367.922 238.775,368.305 238.675 C 368.687 238.575,368.280 238.496,367.400 238.501 C 366.520 238.505,366.207 238.587,366.705 238.683 M46.705 240.283 C 47.202 240.379,47.922 240.375,48.305 240.275 C 48.687 240.175,48.280 240.096,47.400 240.101 C 46.520 240.105,46.207 240.187,46.705 240.283 M194.705 242.283 C 195.202 242.379,195.922 242.375,196.305 242.275 C 196.687 242.175,196.280 242.096,195.400 242.101 C 194.520 242.105,194.207 242.187,194.705 242.283 M373.700 242.676 C 374.085 242.776,374.715 242.776,375.100 242.676 C 375.485 242.575,375.170 242.493,374.400 242.493 C 373.630 242.493,373.315 242.575,373.700 242.676 M47.300 243.876 C 47.685 243.976,48.315 243.976,48.700 243.876 C 49.085 243.775,48.770 243.693,48.000 243.693 C 47.230 243.693,46.915 243.775,47.300 243.876 M161.254 244.830 C 161.219 245.499,161.587 246.201,162.300 246.830 L 163.400 247.800 162.535 246.800 C 162.059 246.250,161.589 245.350,161.490 244.800 L 161.309 243.800 161.254 244.830 M364.300 244.699 C 367.215 244.767,371.985 244.767,374.900 244.699 C 377.815 244.631,375.430 244.575,369.600 244.575 C 363.770 244.575,361.385 244.631,364.300 244.699 M49.000 245.600 C 48.685 246.109,49.612 246.109,50.400 245.600 C 50.888 245.285,50.836 245.211,50.124 245.206 C 49.642 245.203,49.136 245.380,49.000 245.600 M358.503 245.600 C 358.640 246.105,359.832 246.202,366.033 246.215 L 373.400 246.229 366.218 246.105 C 361.125 246.017,358.934 245.838,358.687 245.490 C 358.435 245.135,358.384 245.166,358.503 245.600 M37.700 245.876 C 38.085 245.976,38.715 245.976,39.100 245.876 C 39.485 245.775,39.170 245.693,38.400 245.693 C 37.630 245.693,37.315 245.775,37.700 245.876 M154.400 245.864 C 154.400 246.082,154.895 246.697,155.500 247.230 L 156.600 248.200 155.600 247.000 C 155.050 246.340,154.555 245.725,154.500 245.633 C 154.445 245.542,154.400 245.645,154.400 245.864 M191.845 246.728 C 191.733 246.908,192.173 246.977,192.821 246.882 C 193.470 246.787,194.000 246.640,194.000 246.555 C 194.000 246.250,192.043 246.407,191.845 246.728 M96.661 247.500 C 96.559 247.665,99.653 247.754,103.538 247.697 C 116.873 247.503,118.185 247.367,107.524 247.284 C 101.652 247.238,96.763 247.335,96.661 247.500 M351.505 249.483 C 352.002 249.579,352.722 249.575,353.105 249.475 C 353.487 249.375,353.080 249.296,352.200 249.301 C 351.320 249.305,351.007 249.387,351.505 249.483 M365.105 249.483 C 365.602 249.579,366.322 249.575,366.705 249.475 C 367.087 249.375,366.680 249.296,365.800 249.301 C 364.920 249.305,364.607 249.387,365.105 249.483 M174.900 249.896 C 176.165 249.975,178.235 249.975,179.500 249.896 C 180.765 249.816,179.730 249.751,177.200 249.751 C 174.670 249.751,173.635 249.816,174.900 249.896 M356.900 249.894 C 357.945 249.976,359.655 249.976,360.700 249.894 C 361.745 249.812,360.890 249.744,358.800 249.744 C 356.710 249.744,355.855 249.812,356.900 249.894 M174.120 251.498 C 176.055 251.572,179.115 251.571,180.920 251.497 C 182.724 251.423,181.140 251.363,177.400 251.364 C 173.660 251.364,172.184 251.425,174.120 251.498 M355.280 251.498 C 357.194 251.571,360.434 251.571,362.480 251.498 C 364.526 251.426,362.960 251.366,359.000 251.365 C 355.040 251.365,353.366 251.424,355.280 251.498 " stroke="none" fill="#fcea9d" fill-rule="evenodd"></path><path id="path4" d="M19.774 148.124 C 19.663 148.413,19.630 150.708,19.701 153.224 L 19.829 157.800 19.914 152.900 L 20.000 148.001 199.300 147.900 L 378.600 147.799 199.287 147.700 C 51.677 147.618,19.939 147.693,19.774 148.124 M378.798 152.881 C 378.689 155.676,378.741 157.821,378.913 157.648 C 379.086 157.475,379.175 155.188,379.111 152.567 L 378.996 147.800 378.798 152.881 M109.700 158.300 C 158.925 158.356,239.475 158.356,288.700 158.300 C 337.925 158.244,297.650 158.198,199.200 158.198 C 100.750 158.198,60.475 158.244,109.700 158.300 M149.465 175.094 C 149.361 175.262,154.207 175.349,160.235 175.288 L 171.193 175.175 171.302 197.988 L 171.410 220.800 171.405 197.900 L 171.400 175.000 160.528 174.894 C 154.548 174.835,149.570 174.925,149.465 175.094 M205.100 175.099 C 207.575 175.169,211.625 175.169,214.100 175.099 C 216.575 175.028,214.550 174.971,209.600 174.971 C 204.650 174.971,202.625 175.028,205.100 175.099 M240.697 175.095 L 248.393 175.217 248.502 198.009 L 248.610 220.800 248.605 197.900 L 248.600 175.000 240.800 174.986 L 233.000 174.973 240.697 175.095 M252.184 175.300 C 252.078 175.575,252.041 185.970,252.100 198.400 L 252.207 221.000 252.303 198.109 L 252.400 175.217 260.100 175.099 L 267.800 174.982 260.087 174.891 C 254.218 174.822,252.329 174.919,252.184 175.300 M356.667 175.067 C 356.520 175.213,356.400 179.803,356.400 185.267 L 356.400 195.200 354.600 195.200 L 352.800 195.200 352.800 185.200 C 352.800 179.700,352.665 175.200,352.500 175.200 C 352.335 175.199,352.290 179.744,352.400 185.300 L 352.600 195.400 354.600 195.400 L 356.600 195.400 356.707 185.288 L 356.814 175.175 367.769 175.288 C 373.794 175.349,378.641 175.265,378.539 175.100 C 378.309 174.729,357.036 174.697,356.667 175.067 M38.390 177.119 L 38.583 179.000 38.719 177.447 C 38.793 176.593,38.707 175.747,38.526 175.566 C 38.345 175.385,38.284 176.084,38.390 177.119 M96.667 175.467 C 96.302 175.832,96.339 192.885,96.706 193.462 C 96.868 193.717,97.000 189.712,97.000 184.563 C 97.000 179.413,96.985 175.200,96.967 175.200 C 96.948 175.200,96.813 175.320,96.667 175.467 M123.381 175.706 C 123.274 175.984,123.235 181.069,123.294 187.006 L 123.401 197.800 123.601 186.500 C 123.710 180.285,123.749 175.200,123.687 175.200 C 123.626 175.200,123.488 175.428,123.381 175.706 M145.200 185.338 L 145.400 195.400 147.400 195.441 L 149.400 195.482 147.500 195.319 L 145.600 195.156 145.600 185.402 C 145.600 180.037,145.465 175.564,145.300 175.461 C 145.135 175.359,145.090 179.803,145.200 185.338 M230.583 175.945 C 229.199 176.789,227.199 179.028,227.201 179.731 C 227.202 179.989,227.542 179.644,227.956 178.965 C 228.661 177.809,229.691 176.856,231.457 175.724 C 232.672 174.945,231.905 175.139,230.583 175.945 M269.362 175.694 C 269.781 175.972,270.771 176.733,271.562 177.385 L 273.000 178.570 272.000 177.447 C 271.450 176.829,270.460 176.069,269.800 175.756 C 269.118 175.434,268.929 175.407,269.362 175.694 M278.000 189.176 C 278.000 198.454,278.140 203.240,278.418 203.411 C 278.925 203.724,279.900 202.965,280.444 201.833 C 280.694 201.312,280.524 201.412,279.989 202.100 C 278.429 204.106,278.376 203.654,278.490 189.200 C 278.550 181.500,278.465 175.200,278.300 175.200 C 278.135 175.200,278.000 181.489,278.000 189.176 M326.302 184.100 C 326.492 200.720,326.628 202.236,326.714 188.700 C 326.761 181.275,326.665 175.200,326.500 175.200 C 326.335 175.199,326.246 179.204,326.302 184.100 M330.891 197.676 C 330.841 210.148,330.935 220.436,331.100 220.538 C 331.372 220.707,331.368 204.386,331.090 183.200 C 331.031 178.690,330.942 185.204,330.891 197.676 M45.245 179.100 C 45.270 179.265,46.395 180.385,47.745 181.588 L 50.200 183.776 47.813 181.288 C 45.382 178.755,45.165 178.571,45.245 179.100 M40.600 180.800 C 41.459 181.680,42.252 182.400,42.362 182.400 C 42.472 182.400,41.859 181.680,41.000 180.800 C 40.141 179.920,39.348 179.200,39.238 179.200 C 39.128 179.200,39.741 179.920,40.600 180.800 M223.000 187.800 C 223.000 192.488,223.132 196.116,223.294 195.862 C 223.456 195.608,223.588 191.980,223.588 187.800 C 223.588 183.620,223.456 179.992,223.294 179.738 C 223.132 179.484,223.000 183.112,223.000 187.800 M71.312 197.800 C 71.281 207.260,71.379 215.309,71.528 215.687 C 71.778 216.319,71.743 193.222,71.480 184.400 C 71.418 182.310,71.342 188.340,71.312 197.800 M118.962 187.000 C 118.962 190.520,119.024 191.906,119.098 190.081 C 119.172 188.256,119.172 185.376,119.097 183.681 C 119.022 181.986,118.961 183.480,118.962 187.000 M226.983 197.800 C 226.983 207.260,227.036 211.073,227.100 206.273 C 227.164 201.473,227.163 193.733,227.099 189.073 C 227.036 184.413,226.983 188.340,226.983 197.800 M44.800 184.600 C 45.546 185.370,46.247 186.000,46.357 186.000 C 46.467 186.000,45.946 185.370,45.200 184.600 C 44.454 183.830,43.753 183.200,43.643 183.200 C 43.533 183.200,44.054 183.830,44.800 184.600 M290.301 196.300 C 290.357 202.845,290.452 211.080,290.512 214.600 C 290.572 218.120,290.661 212.765,290.711 202.700 C 290.760 192.635,290.665 184.400,290.500 184.400 C 290.335 184.400,290.246 189.755,290.301 196.300 M53.000 186.400 C 53.859 187.280,54.652 188.000,54.762 188.000 C 54.872 188.000,54.259 187.280,53.400 186.400 C 52.541 185.520,51.748 184.800,51.638 184.800 C 51.528 184.800,52.141 185.520,53.000 186.400 M200.089 202.476 C 200.040 212.308,200.135 220.436,200.300 220.539 C 200.573 220.707,200.567 207.361,200.288 191.000 C 200.228 187.480,200.139 192.644,200.089 202.476 M49.800 189.200 C 50.883 190.300,51.860 191.200,51.970 191.200 C 52.080 191.200,51.283 190.300,50.200 189.200 C 49.117 188.100,48.140 187.200,48.030 187.200 C 47.920 187.200,48.717 188.100,49.800 189.200 M67.200 193.400 C 67.200 199.190,67.119 199.278,64.314 196.515 C 63.261 195.478,62.418 194.803,62.441 195.015 C 62.524 195.804,66.380 198.893,66.990 198.659 C 67.577 198.434,67.978 188.400,67.400 188.400 C 67.290 188.400,67.200 190.650,67.200 193.400 M58.600 191.600 C 59.683 192.700,60.660 193.600,60.770 193.600 C 60.880 193.600,60.083 192.700,59.000 191.600 C 57.917 190.500,56.940 189.600,56.830 189.600 C 56.720 189.600,57.517 190.500,58.600 191.600 M20.000 190.258 C 20.000 190.474,20.585 191.179,21.300 191.825 L 22.600 193.000 21.400 191.602 C 20.740 190.833,20.155 190.128,20.100 190.035 C 20.045 189.943,20.000 190.043,20.000 190.258 M285.600 192.400 C 285.151 193.280,284.874 194.000,284.984 194.000 C 285.094 194.000,285.551 193.280,286.000 192.400 C 286.449 191.520,286.726 190.800,286.616 190.800 C 286.506 190.800,286.049 191.520,285.600 192.400 M54.600 193.600 C 55.459 194.480,56.252 195.200,56.362 195.200 C 56.472 195.200,55.859 194.480,55.000 193.600 C 54.141 192.720,53.348 192.000,53.238 192.000 C 53.128 192.000,53.741 192.720,54.600 193.600 M320.000 194.400 C 320.449 195.280,320.906 196.000,321.016 196.000 C 321.126 196.000,320.849 195.280,320.400 194.400 C 319.951 193.520,319.494 192.800,319.384 192.800 C 319.274 192.800,319.551 193.520,320.000 194.400 M25.000 195.200 C 25.859 196.080,26.652 196.800,26.762 196.800 C 26.872 196.800,26.259 196.080,25.400 195.200 C 24.541 194.320,23.748 193.600,23.638 193.600 C 23.528 193.600,24.141 194.320,25.000 195.200 M58.963 197.600 C 60.126 198.700,61.184 199.600,61.315 199.600 C 61.445 199.600,60.600 198.700,59.437 197.600 C 58.274 196.500,57.216 195.600,57.085 195.600 C 56.955 195.600,57.800 196.500,58.963 197.600 M19.768 206.200 C 19.768 210.600,19.826 212.455,19.898 210.321 C 19.970 208.188,19.970 204.588,19.899 202.321 C 19.827 200.055,19.768 201.800,19.768 206.200 M213.400 199.200 L 206.600 199.429 213.200 199.509 C 216.930 199.553,220.061 199.419,220.400 199.200 C 220.730 198.987,220.820 198.848,220.600 198.891 C 220.380 198.935,217.140 199.074,213.400 199.200 M24.600 200.800 C 25.459 201.680,26.252 202.400,26.362 202.400 C 26.472 202.400,25.859 201.680,25.000 200.800 C 24.141 199.920,23.348 199.200,23.238 199.200 C 23.128 199.200,23.741 199.920,24.600 200.800 M29.244 199.300 C 29.341 199.355,30.676 200.570,32.210 202.000 L 35.000 204.600 32.412 201.900 C 30.988 200.415,29.653 199.200,29.445 199.200 C 29.237 199.200,29.146 199.245,29.244 199.300 M145.397 200.900 C 145.087 201.769,144.986 220.749,145.294 220.263 C 145.456 220.008,145.591 215.535,145.594 210.323 L 145.600 200.846 147.300 200.693 L 149.000 200.540 147.287 200.470 C 146.224 200.426,145.507 200.590,145.397 200.900 M352.593 200.900 C 352.276 201.771,352.186 220.733,352.500 220.539 C 352.665 220.436,352.800 215.963,352.800 210.598 L 352.800 200.844 354.700 200.694 L 356.600 200.544 354.687 200.472 C 353.464 200.426,352.709 200.580,352.593 200.900 M64.400 202.600 C 65.146 203.370,65.847 204.000,65.957 204.000 C 66.067 204.000,65.546 203.370,64.800 202.600 C 64.054 201.830,63.353 201.200,63.243 201.200 C 63.133 201.200,63.654 201.830,64.400 202.600 M96.880 202.080 C 96.340 202.620,96.168 220.209,96.700 220.538 C 96.865 220.641,97.000 216.556,97.000 211.462 L 97.000 202.200 107.800 201.990 L 118.600 201.780 107.980 201.690 C 100.150 201.624,97.234 201.726,96.880 202.080 M118.963 208.800 C 118.963 212.430,119.023 213.915,119.098 212.100 C 119.172 210.285,119.172 207.315,119.098 205.500 C 119.023 203.685,118.963 205.170,118.963 208.800 M29.400 205.200 C 30.483 206.300,31.460 207.200,31.570 207.200 C 31.680 207.200,30.883 206.300,29.800 205.200 C 28.717 204.100,27.740 203.200,27.630 203.200 C 27.520 203.200,28.317 204.100,29.400 205.200 M210.400 203.310 C 210.400 203.371,211.795 204.766,213.500 206.410 L 216.600 209.400 213.610 206.300 C 210.833 203.421,210.400 203.017,210.400 203.310 M66.979 210.546 C 66.966 214.330,67.053 215.538,67.244 214.200 C 67.628 211.513,67.659 205.911,67.294 205.346 C 67.132 205.096,66.991 207.436,66.979 210.546 M38.400 207.800 C 39.595 209.010,40.663 210.000,40.773 210.000 C 40.883 210.000,39.995 209.010,38.800 207.800 C 37.605 206.590,36.537 205.600,36.427 205.600 C 36.317 205.600,37.205 206.590,38.400 207.800 M35.800 211.200 C 36.883 212.300,37.860 213.200,37.970 213.200 C 38.080 213.200,37.283 212.300,36.200 211.200 C 35.117 210.100,34.140 209.200,34.030 209.200 C 33.920 209.200,34.717 210.100,35.800 211.200 M45.200 214.200 C 46.617 215.630,47.867 216.800,47.977 216.800 C 48.087 216.800,47.017 215.630,45.600 214.200 C 44.183 212.770,42.933 211.600,42.823 211.600 C 42.713 211.600,43.783 212.770,45.200 214.200 M222.779 215.287 C 224.858 217.425,226.643 219.090,226.746 218.987 C 226.849 218.884,226.853 218.755,226.754 218.700 C 226.656 218.645,224.871 216.980,222.788 215.000 L 219.000 211.400 222.779 215.287 M175.346 217.000 C 175.347 219.200,175.414 220.049,175.495 218.887 C 175.576 217.724,175.576 215.924,175.493 214.887 C 175.411 213.849,175.345 214.800,175.346 217.000 M41.200 216.200 C 42.395 217.410,43.463 218.400,43.573 218.400 C 43.683 218.400,42.795 217.410,41.600 216.200 C 40.405 214.990,39.337 214.000,39.227 214.000 C 39.117 214.000,40.005 214.990,41.200 216.200 M123.734 218.000 C 123.734 219.650,123.805 220.325,123.891 219.500 C 123.978 218.675,123.978 217.325,123.891 216.500 C 123.805 215.675,123.734 216.350,123.734 218.000 M72.400 217.725 C 72.400 217.794,72.985 218.379,73.700 219.025 L 75.000 220.200 73.825 218.900 C 72.730 217.688,72.400 217.416,72.400 217.725 M271.200 218.860 C 270.430 219.535,270.162 219.905,270.604 219.681 C 271.335 219.311,273.147 217.578,272.762 217.616 C 272.673 217.625,271.970 218.185,271.200 218.860 M65.236 218.957 C 64.981 219.263,64.234 219.738,63.574 220.011 C 62.914 220.284,62.453 220.587,62.550 220.683 C 62.807 220.941,64.973 219.756,65.578 219.026 C 65.864 218.682,66.008 218.400,65.898 218.400 C 65.788 218.400,65.490 218.651,65.236 218.957 M24.176 220.178 C 24.604 220.520,25.234 220.786,25.576 220.768 C 26.115 220.741,26.118 220.707,25.600 220.514 C 25.270 220.392,24.640 220.126,24.200 219.924 C 23.413 219.562,23.412 219.566,24.176 220.178 M296.724 221.099 C 299.873 221.167,304.913 221.167,307.924 221.099 C 310.936 221.031,308.360 220.976,302.200 220.976 C 296.040 220.976,293.576 221.032,296.724 221.099 M26.674 238.299 C 30.455 238.365,36.755 238.365,40.674 238.299 C 44.593 238.234,41.500 238.180,33.800 238.180 C 26.100 238.180,22.893 238.234,26.674 238.299 M105.300 238.294 C 106.345 238.376,108.055 238.376,109.100 238.294 C 110.145 238.212,109.290 238.144,107.200 238.144 C 105.110 238.144,104.255 238.212,105.300 238.294 M171.305 238.287 C 171.914 238.379,172.814 238.377,173.305 238.282 C 173.797 238.187,173.300 238.111,172.200 238.114 C 171.100 238.117,170.697 238.195,171.305 238.287 M182.905 238.287 C 183.514 238.379,184.414 238.377,184.905 238.282 C 185.397 238.187,184.900 238.111,183.800 238.114 C 182.700 238.117,182.297 238.195,182.905 238.287 M227.462 238.300 C 227.360 238.465,228.862 238.600,230.800 238.600 C 232.738 238.600,234.240 238.465,234.138 238.300 C 234.036 238.135,232.534 238.000,230.800 238.000 C 229.066 238.000,227.564 238.135,227.462 238.300 M264.880 238.480 C 264.142 239.218,264.215 250.548,264.962 251.169 C 265.315 251.461,266.693 251.591,268.662 251.518 L 271.800 251.400 271.820 246.699 L 271.840 241.999 271.707 246.615 L 271.574 251.232 268.287 251.116 L 265.000 251.000 265.000 244.800 L 265.000 238.600 268.600 238.376 L 272.200 238.151 268.780 238.076 C 266.560 238.027,265.192 238.168,264.880 238.480 M298.262 238.300 C 298.160 238.465,299.572 238.600,301.400 238.600 C 303.228 238.600,304.640 238.465,304.538 238.300 C 304.436 238.135,303.024 238.000,301.400 238.000 C 299.776 238.000,298.364 238.135,298.262 238.300 M351.300 238.287 C 351.905 238.378,352.895 238.378,353.500 238.287 C 354.105 238.195,353.610 238.120,352.400 238.120 C 351.190 238.120,350.695 238.195,351.300 238.287 M363.700 238.287 C 364.305 238.378,365.295 238.378,365.900 238.287 C 366.505 238.195,366.010 238.120,364.800 238.120 C 363.590 238.120,363.095 238.195,363.700 238.287 M51.633 238.544 C 51.725 238.623,52.700 238.791,53.800 238.918 C 55.087 239.067,55.515 239.026,55.000 238.803 C 54.236 238.472,51.286 238.245,51.633 238.544 M165.000 238.803 C 164.485 239.026,164.913 239.067,166.200 238.918 C 167.300 238.791,168.275 238.623,168.367 238.544 C 168.714 238.245,165.764 238.472,165.000 238.803 M187.233 238.544 C 187.325 238.624,188.210 238.796,189.200 238.927 C 190.402 239.086,190.734 239.047,190.200 238.810 C 189.436 238.472,186.886 238.243,187.233 238.544 M344.600 238.803 C 344.085 239.026,344.513 239.067,345.800 238.918 C 346.900 238.791,347.875 238.623,347.967 238.544 C 348.314 238.245,345.364 238.472,344.600 238.803 M368.833 238.544 C 368.925 238.623,369.900 238.791,371.000 238.918 C 372.287 239.067,372.715 239.026,372.200 238.803 C 371.436 238.472,368.486 238.245,368.833 238.544 M19.784 245.100 L 19.800 251.400 23.200 251.423 L 26.600 251.447 23.310 251.308 L 20.020 251.169 19.894 244.984 L 19.769 238.799 19.784 245.100 M160.600 239.600 C 160.096 239.817,160.022 239.944,160.400 239.944 C 160.730 239.944,161.360 239.789,161.800 239.600 C 162.304 239.383,162.378 239.256,162.000 239.256 C 161.670 239.256,161.040 239.411,160.600 239.600 M234.559 244.800 C 234.559 247.990,234.621 249.295,234.697 247.700 C 234.773 246.105,234.773 243.495,234.697 241.900 C 234.621 240.305,234.559 241.610,234.559 244.800 M375.200 239.800 C 377.026 240.503,377.745 240.493,376.200 239.786 C 375.540 239.483,374.730 239.242,374.400 239.248 C 374.070 239.255,374.430 239.503,375.200 239.800 M27.061 240.300 C 26.959 240.465,29.693 240.554,33.137 240.497 C 44.992 240.301,46.178 240.164,36.724 240.082 C 31.512 240.037,27.163 240.135,27.061 240.300 M174.500 240.297 C 176.205 240.372,178.995 240.372,180.700 240.297 C 182.405 240.222,181.010 240.161,177.600 240.161 C 174.190 240.161,172.795 240.222,174.500 240.297 M355.100 240.298 C 356.915 240.372,359.885 240.372,361.700 240.298 C 363.515 240.223,362.030 240.163,358.400 240.163 C 354.770 240.163,353.285 240.223,355.100 240.298 M47.505 240.683 C 48.002 240.779,48.722 240.775,49.105 240.675 C 49.487 240.575,49.080 240.496,48.200 240.501 C 47.320 240.505,47.007 240.587,47.505 240.683 M349.700 240.676 C 350.085 240.776,350.715 240.776,351.100 240.676 C 351.485 240.575,351.170 240.493,350.400 240.493 C 349.630 240.493,349.315 240.575,349.700 240.676 M365.700 240.676 C 366.085 240.776,366.715 240.776,367.100 240.676 C 367.485 240.575,367.170 240.493,366.400 240.493 C 365.630 240.493,365.315 240.575,365.700 240.676 M51.776 241.378 C 52.545 241.994,52.545 242.006,51.776 242.622 C 51.031 243.219,51.036 243.227,51.900 242.808 C 52.395 242.568,52.800 242.205,52.800 242.000 C 52.800 241.795,52.395 241.432,51.900 241.192 C 51.036 240.773,51.031 240.781,51.776 241.378 M189.162 241.828 C 190.351 242.368,191.392 242.742,191.474 242.659 C 191.648 242.485,187.814 240.789,187.326 240.823 C 187.147 240.836,187.973 241.288,189.162 241.828 M60.000 241.802 C 60.000 242.206,59.695 242.874,59.322 243.286 C 58.685 243.990,58.686 244.019,59.326 243.773 C 60.030 243.503,60.686 241.753,60.248 241.315 C 60.112 241.178,60.000 241.397,60.000 241.802 M155.170 242.300 L 154.200 243.400 155.400 242.400 C 156.060 241.850,156.675 241.355,156.767 241.300 C 156.858 241.245,156.755 241.200,156.536 241.200 C 156.318 241.200,155.703 241.695,155.170 242.300 M197.355 241.526 C 197.669 242.035,196.711 242.320,194.000 242.525 C 192.307 242.652,192.332 242.664,194.424 242.730 C 196.771 242.804,198.619 242.030,197.599 241.399 C 197.258 241.189,197.173 241.233,197.355 241.526 M378.672 241.757 C 378.544 242.090,377.779 242.418,376.922 242.507 L 375.400 242.666 377.113 242.733 C 378.688 242.795,379.778 242.044,379.099 241.365 C 378.989 241.255,378.797 241.432,378.672 241.757 M334.204 242.796 C 333.574 243.454,333.135 244.056,333.229 244.134 C 333.323 244.212,333.913 243.674,334.539 242.938 C 335.954 241.277,335.745 241.188,334.204 242.796 M26.799 243.700 C 26.800 243.865,31.345 243.963,36.900 243.918 C 47.063 243.835,45.898 243.693,33.499 243.503 C 29.814 243.446,26.799 243.535,26.799 243.700 M47.700 243.476 C 48.085 243.576,48.715 243.576,49.100 243.476 C 49.485 243.375,49.170 243.293,48.400 243.293 C 47.630 243.293,47.315 243.375,47.700 243.476 M52.107 245.176 C 51.177 245.328,50.283 245.583,50.122 245.744 C 49.779 246.088,53.034 245.626,54.200 245.166 C 55.149 244.792,54.445 244.795,52.107 245.176 M113.732 245.228 C 113.452 245.508,111.081 245.612,106.889 245.528 C 103.361 245.458,100.559 245.535,100.661 245.700 C 101.059 246.341,114.400 246.050,114.400 245.400 C 114.400 244.687,114.299 244.661,113.732 245.228 M380.124 247.000 C 380.126 248.320,380.201 248.812,380.290 248.093 C 380.379 247.374,380.377 246.294,380.286 245.693 C 380.195 245.092,380.122 245.680,380.124 247.000 M91.300 246.046 C 89.937 246.919,89.495 247.506,90.700 246.843 C 91.618 246.339,93.056 245.227,92.800 245.219 C 92.690 245.216,92.015 245.588,91.300 246.046 M291.200 245.533 C 291.530 245.736,292.250 246.024,292.800 246.171 C 293.495 246.357,293.617 246.325,293.200 246.067 C 292.870 245.864,292.150 245.576,291.600 245.429 C 290.905 245.243,290.783 245.275,291.200 245.533 M333.200 245.489 C 333.200 245.721,333.571 246.336,334.024 246.856 L 334.847 247.800 334.145 246.600 C 333.220 245.021,333.200 244.997,333.200 245.489 M29.900 245.896 C 31.275 245.974,33.525 245.974,34.900 245.896 C 36.275 245.818,35.150 245.754,32.400 245.754 C 29.650 245.754,28.525 245.818,29.900 245.896 M39.633 246.147 C 39.725 246.228,40.520 246.404,41.400 246.538 C 42.515 246.707,42.758 246.671,42.200 246.419 C 41.432 246.071,39.290 245.844,39.633 246.147 M358.749 246.510 C 358.919 246.680,362.286 246.769,366.230 246.709 L 373.400 246.598 365.919 246.399 C 361.805 246.290,358.578 246.339,358.749 246.510 M195.600 246.683 C 198.382 246.904,198.640 247.069,197.754 248.065 C 197.005 248.908,197.006 248.910,197.900 248.360 C 199.763 247.216,198.746 246.355,195.667 246.470 L 193.800 246.540 195.600 246.683 M164.000 247.800 C 164.550 248.114,165.180 248.372,165.400 248.372 C 165.620 248.372,165.350 248.114,164.800 247.800 C 164.250 247.486,163.620 247.228,163.400 247.228 C 163.180 247.228,163.450 247.486,164.000 247.800 M167.200 248.800 C 168.568 249.238,169.619 249.238,168.600 248.800 C 168.160 248.611,167.440 248.462,167.000 248.468 C 166.357 248.477,166.396 248.543,167.200 248.800 M186.000 248.818 C 185.562 249.115,185.724 249.152,186.600 248.956 C 188.071 248.627,188.390 248.398,187.367 248.406 C 186.945 248.409,186.330 248.595,186.000 248.818 M347.600 248.800 C 348.150 248.976,348.960 249.126,349.400 249.132 L 350.200 249.144 349.400 248.800 C 348.960 248.611,348.150 248.462,347.600 248.468 L 346.600 248.480 347.600 248.800 M368.800 248.820 C 368.126 249.049,368.451 249.084,369.800 248.928 C 370.900 248.801,371.875 248.631,371.967 248.549 C 372.282 248.268,369.799 248.480,368.800 248.820 M174.300 249.497 C 175.895 249.573,178.505 249.573,180.100 249.497 C 181.695 249.421,180.390 249.359,177.200 249.359 C 174.010 249.359,172.705 249.421,174.300 249.497 M356.082 249.496 C 357.558 249.573,360.078 249.573,361.682 249.497 C 363.287 249.421,362.080 249.358,359.000 249.358 C 355.920 249.357,354.607 249.419,356.082 249.496 M85.061 250.332 C 84.697 250.735,84.519 251.185,84.666 251.332 C 85.035 251.701,91.908 251.671,92.139 251.300 C 92.242 251.135,90.593 251.058,88.474 251.130 L 84.623 251.259 85.373 250.430 C 85.786 249.973,86.034 249.600,85.924 249.600 C 85.814 249.600,85.426 249.930,85.061 250.332 M63.024 250.610 C 63.729 251.164,63.376 251.209,59.136 251.110 C 56.571 251.049,54.681 251.132,54.936 251.294 C 55.513 251.659,63.369 251.698,63.730 251.337 C 64.056 251.011,63.258 250.000,62.675 250.000 C 62.439 250.000,62.596 250.274,63.024 250.610 M130.749 250.500 C 131.263 251.156,131.037 251.205,127.149 251.284 L 123.000 251.367 126.965 251.499 C 131.085 251.636,132.148 251.330,130.917 250.363 C 130.263 249.850,130.249 249.862,130.749 250.500 M161.600 250.400 C 162.968 250.838,164.019 250.838,163.000 250.400 C 162.560 250.211,161.840 250.062,161.400 250.068 C 160.757 250.077,160.796 250.143,161.600 250.400 M166.200 251.215 C 166.974 251.533,171.104 251.749,170.767 251.454 C 170.675 251.374,169.430 251.213,168.000 251.098 C 166.473 250.974,165.730 251.022,166.200 251.215 M185.800 251.200 L 183.800 251.474 185.600 251.509 C 186.590 251.528,187.760 251.389,188.200 251.200 C 189.113 250.808,188.662 250.808,185.800 251.200 M230.600 251.200 L 227.000 251.449 230.476 251.524 C 232.449 251.567,234.060 251.427,234.200 251.200 C 234.336 250.980,234.392 250.834,234.324 250.876 C 234.256 250.917,232.580 251.063,230.600 251.200 M296.754 251.315 C 296.928 251.489,298.855 251.578,301.035 251.513 L 305.000 251.395 300.718 251.198 C 298.363 251.089,296.579 251.142,296.754 251.315 M347.200 251.203 C 348.189 251.517,352.288 251.734,351.967 251.456 C 351.875 251.377,350.540 251.216,349.000 251.099 C 347.373 250.975,346.619 251.019,347.200 251.203 M368.000 251.200 L 365.800 251.470 368.000 251.495 C 369.210 251.509,370.650 251.376,371.200 251.200 L 372.200 250.880 371.200 250.905 C 370.650 250.919,369.210 251.052,368.000 251.200 " stroke="none" fill="#fcf4c5" fill-rule="evenodd"></path></g></svg>